<?xml version="1.0" standalone="no"?>
<!DOCTYPE svg PUBLIC "-//W3C//DTD SVG 1.1//EN" "http://www.w3.org/Graphics/SVG/1.1/DTD/svg11.dtd" >
<!--
2013-9-30: Created.
-->
<svg>
<metadata>
Created by iconfont
</metadata>
<defs>

<font id="font_family" horiz-adv-x="1024" >
  <font-face
    font-family="font_family"
    font-weight="500"
    font-stretch="normal"
    units-per-em="1024"
    ascent="896"
    descent="-128"
  />
    <missing-glyph />
    
    <glyph glyph-name="caidan" unicode="&#59303;" d="M0 749.568h1024v-146.432H0V749.568z m0-292.864h1024v-146.432H0V456.704z m0-291.84h1024v-146.432H0v146.432z"  horiz-adv-x="1024" />

    
    <glyph glyph-name="irover_" unicode="&#58883;" d="M232 512h560a8 8 0 0 0 8-8v-368a8 8 0 0 0-8-8h-560a8 8 0 0 0-8 8v368a8 8 0 0 0 8 8z m16-16a8 8 0 0 1-8-8v-336a8 8 0 0 1 8-8h528a8 8 0 0 1 8 8v336a8 8 0 0 1-8 8h-528zM392 368m-32 0a32 32 0 1 1 64 0 32 32 0 1 1-64 0ZM632 368m-32 0a32 32 0 1 1 64 0 32 32 0 1 1-64 0ZM384 736m8 0l0 0q8 0 8-8l0-336q0-8-8-8l0 0q-8 0-8 8l0 336q0 8 8 8ZM624 736m8 0l0 0q8 0 8-8l0-336q0-8-8-8l0 0q-8 0-8 8l0 336q0 8 8 8ZM160 64m8 0l704 0q8 0 8-8l0-16q0-8-8-8l-704 0q-8 0-8 8l0 16q0 8 8 8Z"  horiz-adv-x="1024" />

    
    <glyph glyph-name="irover_1" unicode="&#58884;" d="M144 651.2c0 9.6 0 20.8 20.8 20.8h108.8v16h-108.8c-27.2 0-36.8-14.4-36.8-36.8v-105.6h16v105.6z m0-564.8c0-9.6 0-20.8 20.8-20.8h108.8v-14.4h-108.8C137.6 49.6 128 64 128 86.4V192h16v-105.6z m737.6 564.8c0 9.6 0 20.8-20.8 20.8H752v16h108.8c27.2 0 36.8-14.4 36.8-35.2v-105.6h-16v104z m0-564.8c0-9.6 0-20.8-20.8-20.8H752v-14.4h108.8c27.2 0 36.8 14.4 36.8 35.2V192h-16v-105.6z m-115.2 262.4c11.2 12.8 11.2 28.8 0 41.6-40 41.6-144 134.4-264 134.4S281.6 433.6 240 390.4c-11.2-12.8-11.2-28.8 0-41.6 40-41.6 144-134.4 264-134.4s220.8 91.2 262.4 134.4z m-262.4-113.6c-116.8 0-217.6 92.8-256 132.8 40 40 140.8 132.8 256 132.8 116.8 0 217.6-92.8 256-132.8-38.4-38.4-140.8-132.8-256-132.8z m0 188.8c-32 0-57.6-24-57.6-56 0-30.4 25.6-56 57.6-56s57.6 24 57.6 56c-1.6 32-25.6 56-57.6 56z"  horiz-adv-x="1024" />

    
    <glyph glyph-name="irover_2" unicode="&#58885;" d="M512 48c-185.568 0-336 150.432-336 336s150.432 336 336 336 336-150.432 336-336-150.432-336-336-336z m0 16c176.736 0 320 143.264 320 320s-143.264 320-320 320-320-143.264-320-320 143.264-320 320-320zM512 224c-88.368 0-160 71.632-160 160s71.632 160 160 160 160-71.632 160-160-71.632-160-160-160z m0 32a128 128 0 1 1 0 256 128 128 0 0 1 0-256zM680 552m-24 0a24 24 0 1 1 48 0 24 24 0 1 1-48 0Z"  horiz-adv-x="1024" />

    
    <glyph glyph-name="irover_3" unicode="&#58886;" d="M642.592 96.8h-182.4c-29.888 0-43.312 21.168-55.312 39.808a32.672 32.672 0 0 1-2.592 3.456c-1.168 1.6-2.112 2.992-3.04 4.144l-85.216 123.792c-18.112 26.24-11.056 62.144 16 79.856a58.48 58.48 0 0 0 32.72 9.664c13.648 0 26.832-4.592 37.184-12.88V566.24c0 31.76 25.184 57.536 56.016 57.536 30.832 0 56-25.76 56-57.536v-78.928a47.008 47.008 0 0 0 24.256 6.912c17.184 0 32.48-9.216 41.888-23.936 8.96 7.36 19.776 11.728 31.072 11.728 20.48 0 38.832-13.808 46.832-33.824a47.312 47.312 0 0 0 20.24 4.608c28.48 0 51.536-25.776 51.536-57.536v-173.744c0.24-63.04-48.704-124.72-85.184-124.72M356.864 340.272c-5.2-0.88-14.176-4.128-21.328-8.768-16.832-10.976-20.192-36.624-8.96-53.088l88.352-128.4c0.736-1.2 1.712-2.4 2.688-3.824 0.96-1.44 1.952-2.864 2.928-4.064 13.664-21.472 21.232-30.784 37.104-30.784h189.168c20.752 0 64.192 49.888 64.192 105.248V396.8c0 19.328-13.44 35.792-29.04 35.792-7.088 0-13.92-3.344-19.536-9.312l-19.28-21.232-2.208 28.16c-1.44 18.128-14.144 32.464-29.04 32.464-9.76 0-19.28-6.448-24.64-16.96l-15.632-30.784-7.328 33.648c-3.408 15.52-15.136 26.976-28.064 26.976-10.736 0-20.992-7.872-26.112-20.048l-14.368-58.72V569.68c0 19.792-23.232 40.08-41.792 40.08-18.56 0-39.04-20.288-39.04-40.08v-263.392l-23.456 21.792c-8.8 9.584-20.336 13.648-34.608 12.208zM495.792 396.192h16.16v80.32h-16.16v-80.32z m70.448-25.28h17.728v88H566.24v-88z m73.36-17.6h18.144v88h-18.144v-88zM327.808 523.888a147.664 147.664 0 1 0 259.6 22.24l-21.712 7.072a124.96 124.96 0 1 1-228.24 0.368l-9.648-29.68z"  horiz-adv-x="1024" />

    
    <glyph glyph-name="irover_4" unicode="&#58887;" d="M428.32 399.296l-176.88 77.136A19.312 19.312 0 0 0 240 494.272c0 7.824 4.512 14.864 11.44 17.84l442.72 190.512c6.832 2.864 14.672 1.184 19.888-4.272 5.216-5.456 6.816-13.632 4.08-20.8l-182.992-463.36a18.464 18.464 0 0 0-17.056-11.952c-7.488 0-14.24 4.72-17.072 11.952l-72.672 185.12z m-164.48 94.976l176.128-72.8c4.512-1.952 8.096-5.696 9.968-10.4L518.08 233.12l176.064 444.416L263.84 494.272zM432.224 303.584l9.504-16.24c-133.744-11.376-249.216-50.496-249.216-96.992 0-55.424 164-100.352 327.488-100.352 163.472 0 329.232 44.928 329.232 100.352 0 47.072-119.584 86.576-255.792 97.408l9.792 16.208c149.76-12.656 260.768-58.72 260.768-113.616 0-64.672-154.016-117.088-344-117.088S176 125.68 176 190.352c0 54.336 108.752 100.016 256.224 113.232z"  horiz-adv-x="1024" />

    
    <glyph glyph-name="irover_5" unicode="&#58888;" d="M488 16C289.52 16 128 177.504 128 376 128 574.48 289.52 736 488 736 686.496 736 848 574.48 848 376 848 177.44 686.56 16 488 16z m0 706.24c-190.912 0-346.24-155.328-346.24-346.24s155.328-346.24 346.24-346.24 346.24 155.328 346.24 346.24c0.08 190.912-155.328 346.24-346.24 346.24z m0-246.144c-53.12 0-96.32 43.2-96.32 96.336 0 53.12 43.28 96.256 96.32 96.256a96.48 96.48 0 0 0 96.32-96.32c0-53.136-43.2-96.272-96.32-96.272z m0 174.752a78.544 78.544 0 0 1-78.496-78.496 78.544 78.544 0 0 1 78.496-78.496 78.544 78.544 0 0 1 78.496 78.496 78.544 78.544 0 0 1-78.496 78.496z m0-568.448c-53.12 0-96.32 43.2-96.32 96.336 0 53.12 43.28 96.256 96.32 96.256a96.48 96.48 0 0 0 96.32-96.32c0-53.136-43.2-96.272-96.32-96.272z m0 175.504a79.2 79.2 0 0 1-79.168-79.168 79.2 79.2 0 0 1 79.168-79.152 79.2 79.2 0 0 1 79.152 79.152A79.2 79.2 0 0 1 488 257.92z m-194.96 21.76c-53.12 0-96.336 43.2-96.336 96.32 0 53.136 43.2 96.352 96.32 96.352 53.136 0 96.272-43.296 96.272-96.336s-43.2-96.32-96.256-96.32z m0 174.944a78.64 78.64 0 0 1-78.608-78.608 78.64 78.64 0 0 1 78.608-78.608 78.64 78.64 0 0 1 78.608 78.608 78.72 78.72 0 0 1-78.608 78.608z m396.48-174.944c-53.12 0-96.32 43.2-96.32 96.32 0 53.136 43.2 96.352 96.32 96.352a96.48 96.48 0 0 0 96.336-96.336 96.48 96.48 0 0 0-96.32-96.32z m0 174.352A78.064 78.064 0 0 1 611.52 376a78.064 78.064 0 0 1 78.016-78.016 78.064 78.064 0 0 1 78.016 78.016 78.064 78.064 0 0 1-78.016 78.016zM518.208 32h374.688a8 8 0 1 0 0-16H484.048a4.048 4.048 0 0 0-0.912 8l33.248 7.792a8 8 0 0 0 1.824 0.208z"  horiz-adv-x="1024" />

    
    <glyph glyph-name="irover_6" unicode="&#58889;" d="M888 459.2v94.4c0 44.8-33.6 70.4-68.8 70.4H164.8C136 624 96 600 96 553.6v-352c0-44.8 32-70.4 68.8-70.4h654.4c30.4 0 68.8 28.8 68.8 70.4v94.4c22.4 0 40 19.2 40 41.6v81.6c0 22.4-17.6 40-40 40z m-17.6-259.2c0-24-28.8-51.2-51.2-51.2H166.4c-24 0-52.8 16-52.8 51.2V550.4c0 27.2 27.2 54.4 52.8 54.4h652.8c25.6 0 51.2-24 51.2-51.2v-353.6zM542.4 398.4L448 228.8l28.8 129.6-40 6.4L528 539.2l-30.4-134.4z"  horiz-adv-x="1024" />

    
    <glyph glyph-name="irover_7" unicode="&#58890;" d="M184 560a56 56 0 1 0 0 112 56 56 0 0 0 0-112z m0 16a40 40 0 1 1 0 80 40 40 0 0 1 0-80zM840 560a56 56 0 1 0 0 112 56 56 0 0 0 0-112z m0 16a40 40 0 1 1 0 80 40 40 0 0 1 0-80zM840 64a56 56 0 1 0 0 112 56 56 0 0 0 0-112z m0 16a40 40 0 1 1 0 80 40 40 0 0 1 0-80zM184 64a56 56 0 1 0 0 112 56 56 0 0 0 0-112z m0 16a40 40 0 1 1 0 80 40 40 0 0 1 0-80zM224 624m8 0l560 0q8 0 8-8l0 0q0-8-8-8l-560 0q-8 0-8 8l0 0q0 8 8 8ZM305.6 436.48c10.56 0 19.2-3.04 26.08-9.12 6.72-6.08 10.24-14.24 10.24-24.16s-3.84-18.88-11.2-26.88c-4-4.16-11.84-10.4-23.68-18.4-14.56-9.76-22.88-18.56-24.96-26.24h60V320h-76.16c0 10.4 3.68 19.84 11.36 28.32 4.48 5.12 12.64 12 24.8 20.32 8.96 6.4 14.88 11.04 17.92 14.24 5.76 6.24 8.8 13.12 8.8 20.48 0 7.04-2.08 12.32-6.24 16.16s-10.08 5.76-17.44 5.76c-7.84 0-13.92-2.56-18.08-8-4.48-5.12-6.88-12.8-7.04-22.88h-13.12c0 12.8 3.68 23.04 10.72 30.56 7.04 7.68 16.48 11.52 28 11.52z m62.24-97.44c2.56 0 4.96-0.96 6.88-2.88s2.88-4.16 2.88-7.04c0-2.72-0.96-4.96-2.88-6.88s-4.32-2.88-6.88-2.88c-2.88 0-5.12 0.96-6.88 2.88a9.312 9.312 0 0 0-2.88 6.88c0 2.88 0.96 5.12 2.88 7.04 1.76 1.92 4 2.88 6.88 2.88z m77.264 95.2h12.32v-77.6h18.56v-10.72h-18.56V320h-12.48v25.92h-57.44v12.48l57.6 75.84z m-0.64-17.12l-45.92-60.48h46.4v60.48h-0.48z m90.24 19.36c14.24 0 25.6-3.36 34.08-10.4 8-6.56 12.96-16 15.04-28.48h-13.12c-1.76 8.64-5.6 15.2-11.52 19.84-6.24 4.96-14.4 7.36-24.48 7.36-12.48 0-22.24-4.32-29.6-13.12-7.36-8.64-10.88-20.32-10.88-35.04 0-14.4 3.52-25.76 10.56-34.08 7.52-8.8 18.72-13.28 33.6-13.28 6.24 0 12.16 0.96 17.92 2.56 5.6 1.6 10.4 3.84 14.4 6.4v29.12h-35.84v11.36h48.8v-46.72c-5.44-4.48-12.16-7.84-20-10.4-8.32-2.56-17.12-3.84-26.56-3.84-18.08 0-32.16 5.76-42.08 17.28-9.28 10.72-13.92 24.64-13.92 41.6s4.48 30.88 13.76 41.92c9.76 12 23.04 17.92 39.84 17.92z m65.6-2.24h13.12v-49.6h66.08v49.6h13.12V320h-13.12v53.28h-66.08V320h-13.12v114.24z m103.984-31.52h65.76v-8.96l-50.72-63.04h53.28V320h-69.92v9.28l50.56 62.72h-48.96v10.72zM224 128m8 0l560 0q8 0 8-8l0 0q0-8-8-8l-560 0q-8 0-8 8l0 0q0 8 8 8ZM192 576m0-8l0-400q0-8-8-8l0 0q-8 0-8 8l0 400q0 8 8 8l0 0q8 0 8-8ZM848 576m0-8l0-400q0-8-8-8l0 0q-8 0-8 8l0 400q0 8 8 8l0 0q8 0 8-8Z"  horiz-adv-x="1024" />

    
    <glyph glyph-name="navatic02" unicode="&#58891;" d="M512 0C299.92 0 128 171.91999999999996 128 384S299.92 768 512 768s384-171.92 384-384-171.92-384-384-384z m0 14.768c203.92 0 369.232 165.312 369.232 369.232C881.232 587.9200000000001 715.92 753.232 512 753.232 308.08 753.232 142.768 587.9200000000001 142.768 384c0-203.92 165.312-369.232 369.232-369.232zM512 168c-119.296 0-216 96.704-216 216S392.704 600 512 600 728 503.296 728 384 631.296 168 512 168z m0 16c110.464 0 200 89.536 200 200S622.464 584 512 584 312 494.464 312 384 401.536 184 512 184zM424 400m16 0l144 0q16 0 16-16l0 0q0-16-16-16l-144 0q-16 0-16 16l0 0q0 16 16 16ZM64 392m8 0l224 0q8 0 8-8l0 0q0-8-8-8l-224 0q-8 0-8 8l0 0q0 8 8 8ZM720 392m8 0l224 0q8 0 8-8l0 0q0-8-8-8l-224 0q-8 0-8 8l0 0q0 8 8 8ZM520 832m0-8l0-224q0-8-8-8l0 0q-8 0-8 8l0 224q0 8 8 8l0 0q8 0 8-8ZM520 176m0-8l0-224q0-8-8-8l0 0q-8 0-8 8l0 224q0 8 8 8l0 0q8 0 8-8ZM528 472m0-16l0-144q0-16-16-16l0 0q-16 0-16 16l0 144q0 16 16 16l0 0q16 0 16-16Z"  horiz-adv-x="1024" />

    
    <glyph glyph-name="icon_navatics_" unicode="&#58894;" d="M932.8 696l-75.2 36.8-40-73.6 14.4-8 32 60.8 60.8-30.4zM928 204.8l-75.2-36.8-40 75.2 14.4 6.4 32-60.8 60.8 30.4zM915.2 491.2h-16v9.6c0 94.4-16 158.4-43.2 214.4 0 0 12.8 4.8 14.4 4.8 27.2-57.6 46.4-121.6 46.4-219.2v-9.6zM915.2 428.8h-16v-9.6c-3.2-97.6-14.4-172.8-46.4-230.4l16-4.8c27.2 57.6 43.2 137.6 46.4 235.2v9.6zM76.8 584C259.2 643.2 408 672 523.2 672c115.2 0 256-28.8 425.6-86.4 25.6-9.6 43.2-33.6 43.2-60.8V384c0-27.2-16-51.2-41.6-60.8-163.2-60.8-305.6-89.6-427.2-89.6-121.6 0-270.4 30.4-448 91.2-25.6 8-43.2 33.6-43.2 60.8v137.6c0 27.2 17.6 52.8 44.8 60.8z m8-24c-20.8-9.6-32-30.4-32-51.2 0-14.4 0-32-1.6-54.4 0-57.6 1.6-91.2 33.6-102.4 158.4-46.4 283.2-92.8 436.8-92.8S840 304 940.8 352c33.6 16 28.8 68.8 28.8 88 0 20.8 6.4 105.6-28.8 120-156.8 49.6-256 86.4-417.6 86.4-153.6 0-270.4-36.8-438.4-86.4zM232 656h16c4.8 0 8-3.2 8-8v-16c0-4.8-3.2-8-8-8h-16c-4.8 0-8 3.2-8 8v16c0 4.8 3.2 8 8 8zM417.6 414.4h-52.8c-4.8 0-9.6 3.2-9.6 8s1.6 8 4.8 12.8l48 67.2c3.2 4.8 6.4 8 12.8 8 4.8 0 9.6-3.2 9.6-9.6v-73.6h14.4c4.8 0 6.4-3.2 6.4-6.4s-1.6-6.4-6.4-6.4H432v-25.6c0-4.8-3.2-6.4-8-6.4s-8 1.6-8 6.4v25.6z m-11.2 60.8l-30.4-41.6c-1.6-1.6-3.2-4.8-6.4-6.4H416v41.6c0 8 0 17.6 1.6 25.6-3.2-6.4-6.4-11.2-11.2-19.2z m70.4-20.8c6.4 8 16 11.2 27.2 11.2 24 0 40-16 40-40 0-25.6-17.6-43.2-43.2-43.2-19.2 0-33.6 8-40 20.8 0 1.6-1.6 3.2-1.6 3.2 0 3.2 1.6 4.8 4.8 6.4 1.6 1.6 3.2 1.6 4.8 1.6 1.6 0 4.8-1.6 6.4-3.2 4.8-9.6 12.8-14.4 25.6-14.4 17.6 0 28.8 11.2 28.8 28.8s-11.2 28.8-27.2 28.8c-11.2 0-19.2-4.8-24-12.8-1.6-3.2-3.2-4.8-8-4.8h-1.6c-3.2 0-6.4 1.6-6.4 6.4v1.6l4.8 54.4c0 6.4 4.8 9.6 11.2 9.6h54.4c3.2 0 6.4-3.2 6.4-6.4s-1.6-6.4-6.4-6.4h-49.6c-1.6 0-3.2-1.6-3.2-3.2l-3.2-30.4c1.6-3.2 1.6-6.4 0-8z m96 57.6c9.6 0 19.2-8 19.2-19.2 0-9.6-8-19.2-19.2-19.2s-19.2 8-19.2 19.2 8 19.2 19.2 19.2z m0-8c-6.4 0-11.2-4.8-11.2-11.2 0-6.4 4.8-11.2 11.2-11.2s11.2 4.8 11.2 11.2c-1.6 6.4-6.4 11.2-11.2 11.2z"  horiz-adv-x="1024" />

    
    <glyph glyph-name="icon_navatics_1" unicode="&#58895;" d="M857.648 612.32H647.632l-22.144 107.056H414.976l-22.128-107.056H182.832C143.472 612.32 112 580.688 112 542.24v-405.872c0-38.928 31.968-70.08 70.832-70.08h674.32c39.36 0 70.832 31.632 70.832 70.08V541.744c0.48 38.944-31.488 70.56-70.336 70.56z m55.52-480.128c0-22.384-28.672-51.248-51.296-51.248H177.808c-22.624 0-50.448 32.544-50.448 54.928V547.04c0 22.4 27.824 50.352 50.448 50.352h228.144l22.032 107.584h185.552l22.144-107.584h226.192c30.704 0 51.28-32.352 51.28-54.736v-410.448zM487.328 409.088h14.784v-93.12h22.272v-12.864h-22.272V272h-14.976v31.104h-68.928v14.976l69.12 91.008z m-0.768-20.544l-55.104-72.576h55.68v72.576h-0.576z m52.16 23.232h15.36v-86.592l49.728 46.08h20.352l-43.776-39.936 48-59.328h-19.776l-38.784 49.344-15.744-14.208V272h-15.36v139.776zM520 512C418.832 512 336 433.248 336 336s82.336-176 184-176S704 238.752 704 336s-82.816 176-184 176z m0-337.76c-92.992 0-169.12 72.288-169.12 161.76s75.584 161.76 169.12 161.76S689.12 425.488 689.12 336 612.992 174.24 520 174.24zM800 528c-17.776 0-32-14.224-32-32s14.224-32 32-32 32 14.224 32 32-14.224 32-32 32z"  horiz-adv-x="1024" />

    
    <glyph glyph-name="icon_navatics_3" unicode="&#58897;" d="M961.6 468.8V576c0 51.2-40 80-78.4 80H128c-33.6 0-80-27.2-80-80v-400c0-52.8 36.8-80 80-80h755.2c35.2 0 78.4 32 78.4 78.4v107.2c25.6 0 46.4 20.8 46.4 46.4v92.8c0 27.2-20.8 48-46.4 48z m-16-291.2c0-35.2-36.8-65.6-64-65.6H128c-38.4 0-64 25.6-64 65.6V576c0 30.4 25.6 62.4 64 62.4h753.6c36.8 0 64-28.8 64-59.2v-401.6zM296 369.6c3.2 0 8 3.2 8 8v40c0 44.8 27.2 105.6 96 105.6h281.6L651.2 496c-4.8-6.4-3.2-8-3.2-11.2 1.6-9.6 8-12.8 12.8-12.8 4.8 0 9.6 3.2 12.8 6.4l43.2 41.6c8 6.4 6.4 17.6 0 24L672 587.2c-1.6 1.6-9.6 4.8-12.8 4.8-6.4 0-12.8-3.2-14.4-12.8 0-6.4 4.8-11.2 8-14.4l30.4-22.4H401.6c-68.8 0-113.6-54.4-113.6-124.8v-40c0-4.8 4.8-8 8-8zM699.2 384c-3.2 0-8-3.2-8-8V336c0-44.8-27.2-105.6-96-105.6H312l30.4 27.2c4.8 6.4 3.2 8 3.2 11.2-1.6 9.6-8 12.8-12.8 12.8-4.8 0-9.6-3.2-12.8-6.4l-43.2-41.6c-8-6.4-6.4-17.6 0-24l44.8-43.2c3.2-3.2 9.6-6.4 14.4-6.4 6.4 0 12.8 3.2 14.4 12.8 0 6.4-4.8 11.2-8 14.4l-30.4 22.4h281.6c68.8 0 113.6 54.4 113.6 124.8v40c0 6.4-4.8 9.6-8 9.6zM449.6 350.4h-52.8c-4.8 0-9.6 3.2-9.6 8s1.6 8 4.8 12.8l48 67.2c3.2 4.8 6.4 8 12.8 8 4.8 0 9.6-3.2 9.6-9.6v-73.6h14.4c4.8 0 6.4-3.2 6.4-6.4s-1.6-6.4-6.4-6.4H464v-25.6c0-4.8-3.2-6.4-8-6.4s-8 1.6-8 6.4v25.6z m-11.2 60.8l-30.4-41.6c-1.6-1.6-3.2-4.8-6.4-6.4H448v41.6c0 8 0 17.6 1.6 25.6-3.2-6.4-6.4-11.2-11.2-19.2z m129.6-32v-54.4c0-4.8-3.2-6.4-8-6.4s-6.4 1.6-6.4 6.4v51.2c0 14.4-6.4 20.8-17.6 20.8-9.6 0-16-4.8-20.8-11.2-3.2-4.8-6.4-9.6-6.4-16v-44.8c0-4.8-3.2-6.4-6.4-6.4-4.8 0-8 1.6-8 6.4v113.6c0 4.8 3.2 6.4 8 6.4s6.4-1.6 6.4-6.4v-40c0-1.6 0-6.4-1.6-8 4.8 11.2 14.4 19.2 30.4 19.2 20.8 0 30.4-11.2 30.4-30.4z m19.2-54.4v78.4c0 4.8 3.2 6.4 8 6.4 3.2 0 8-1.6 8-6.4v-3.2c0-1.6 0-4.8-1.6-8 3.2 8 11.2 17.6 24 17.6h3.2c1.6 0 4.8 0 6.4-1.6 3.2 0 4.8-3.2 4.8-6.4v-3.2c0-3.2-3.2-6.4-6.4-6.4h-1.6c-1.6 0-4.8 1.6-8 1.6-6.4 0-12.8-3.2-16-9.6-4.8-4.8-6.4-11.2-6.4-17.6v-44.8c0-4.8-3.2-6.4-8-6.4-3.2 3.2-6.4 4.8-6.4 9.6z"  horiz-adv-x="1024" />

    
    <glyph glyph-name="icon_navatics_4" unicode="&#58898;" d="M468.272 199.616a38.432 38.432 0 0 1 54.848 0l128.064 129.2 17.44 17.632c104.368 105.456 110.832 281.232 3.136 383.248a255.456 255.456 0 0 1-352.032 0c-107.696-102.016-101.248-277.792 3.12-383.152l145.424-146.928z m-137.44 522.608A239.168 239.168 0 0 0 495.68 788.016c61.456 0 120.032-23.376 164.88-65.792a236.704 236.704 0 0 0 74.288-169.056c1.12-71.168-19.52-137.648-69.44-188.112l-25.824-25.664c-71.664-74.72-114.432-117.536-128.32-128.432-6.24-4.928-10.336-9.504-15.712-9.504-3.888 0-8.448 2.56-16.576 9.504-10.56 9.008-37.12 35.504-79.712 79.472l-64.64 63.024c-49.92 50.464-79.504 128.544-78.4 199.712 1.008 65.68 28.976 125.648 74.592 169.056zM421.408 178.912c0 3.872-3.68 6.704-7.792 6.704H132.368c-3.216 0-7.808-1.28-7.808-6.72 0-5.44 4.8-6.704 7.808-6.704h281.248c5.312 0 7.792 2.832 7.792 6.72zM832.048 194.128H573.296c-4.832 0-7.376-4.592-7.376-7.6 0-2.992 2.544-7.616 7.376-7.616h258.752c28 0 38.608-27.296 38.608-41.248 0-12.464-10.608-43.6-38.608-43.6l-570.64 0.816c-30.048 0-53.344-16.032-53.344-46.464 0-30.368 22.688-46.288 53.344-46.288l480.64 0.064c4.832 0 7.712 4.576 7.712 7.6a7.776 7.776 0 0 1-7.696 7.28l-480.64-0.048c-15.36 0-38.576 6.304-38.576 31.392 0 25.104 23.2 30.432 38.56 30.432h570.64c30.064 0 53.312 32.8 53.312 58.816 0 26.624-23.248 56.48-53.312 56.48zM496 496c26.48 0 48 21.536 48 48 0 26.48-21.52 48-48 48-26.464 0-48-21.52-48-48 0-26.432 21.536-48 48-48z"  horiz-adv-x="1024" />

    
    <glyph glyph-name="navatic01" unicode="&#58903;" d="M111.44 384H176v-16H111.44a56 56 0 1 0 0 16z m801.12-16h-48.64c-4.256-186.288-156.608-336-343.92-336C330.016 32 176 186.01599999999996 176 376S330.016 720 520 720c187.312 0 339.664-149.712 343.904-336h48.656a56 56 0 1 0 0-16zM520 48C701.152 48 848 194.84799999999996 848 376S701.152 704 520 704 192 557.152 192 376 338.848 48 520 48z m448 288a40 40 0 1 1 0 80 40 40 0 0 1 0-80z m-912 0a40 40 0 1 1 0 80 40 40 0 0 1 0-80z m359.552 38.112l-90.8 72.64 10 12.48 81.696-65.344 96.112 63.6 95.904-58.72 83.312 60.4 9.392-12.96-91.968-66.656-96.304 58.96-97.344-64.4z m0-112l-90.8 72.64 10 12.48 81.696-65.344 96.112 63.6 95.904-58.72 83.312 60.4 9.392-12.96-91.968-66.656-96.304 58.96-97.344-64.4z"  horiz-adv-x="1024" />

    
    <glyph glyph-name="arrow_open_solid" unicode="&#58904;" d="M763.733333 512l-217.6-285.866667c-17.066667-21.333333-46.933333-21.333333-64 0L260.266667 512c-12.8 21.333333 4.266667 42.666667 34.133333 42.666667h439.466667c25.6 0 42.666667-21.333333 29.866666-42.666667z"  horiz-adv-x="1024" />

    
    <glyph glyph-name="language" unicode="&#58905;" d="M896 44.8c83.2 96 128 211.2 128 339.2 0 134.4-51.2 262.4-147.2 364.8C780.8 838.4 652.8 896 518.4 896h-12.8C371.2 896 243.2 838.4 147.2 748.8 57.6 652.8 0 524.8 0 390.4v-12.8c0-134.4 51.2-262.4 147.2-358.4C249.6-76.8 377.6-128 512-128s262.4 51.2 364.8 147.2c6.4 12.8 12.8 19.2 19.2 25.6zM44.8 358.4h217.6c0-76.8 12.8-147.2 25.6-211.2-70.4-19.2-115.2-44.8-140.8-57.6C89.6 166.4 51.2 262.4 44.8 358.4z m102.4 313.6c25.6-12.8 70.4-38.4 140.8-57.6-12.8-64-25.6-134.4-25.6-204.8H44.8c6.4 96 44.8 192 102.4 262.4z m832-262.4h-217.6c0 76.8-12.8 140.8-25.6 204.8 70.4 19.2 115.2 44.8 140.8 57.6 57.6-70.4 96-166.4 102.4-262.4z m-262.4 0H537.6V588.8c57.6 0 108.8 6.4 153.6 19.2 12.8-64 19.2-128 25.6-198.4zM537.6 633.6V844.8c38.4-12.8 83.2-57.6 115.2-128 12.8-19.2 19.2-44.8 25.6-70.4-38.4-6.4-89.6-12.8-140.8-12.8zM486.4 844.8v-211.2c-51.2 0-102.4 6.4-140.8 12.8 6.4 25.6 19.2 51.2 25.6 70.4C403.2 787.2 448 832 486.4 844.8z m0-256v-179.2H307.2c0 70.4 12.8 134.4 25.6 192 44.8-6.4 96-12.8 153.6-12.8zM307.2 358.4h179.2v-179.2c-57.6 0-108.8-6.4-153.6-19.2-12.8 64-19.2 128-25.6 198.4z m179.2-224v-211.2c-44.8 12.8-83.2 57.6-115.2 128-12.8 19.2-19.2 44.8-25.6 70.4 38.4 6.4 89.6 6.4 140.8 12.8z m51.2-211.2v211.2c57.6 0 102.4-6.4 140.8-12.8-6.4-25.6-19.2-51.2-25.6-70.4-32-70.4-76.8-115.2-115.2-128z m0 256V358.4h179.2c0-70.4-12.8-134.4-25.6-198.4-44.8 12.8-96 19.2-153.6 19.2z m224 179.2h217.6c-6.4-102.4-44.8-192-102.4-268.8-25.6 12.8-70.4 38.4-140.8 57.6 12.8 70.4 25.6 140.8 25.6 211.2z m83.2 352c-19.2-12.8-57.6-32-121.6-51.2-19.2 70.4-51.2 134.4-89.6 172.8 83.2-19.2 153.6-64 211.2-121.6zM390.4 832c-38.4-38.4-70.4-102.4-89.6-172.8-57.6 19.2-96 38.4-121.6 51.2 57.6 57.6 128 102.4 211.2 121.6zM179.2 57.6c19.2 12.8 57.6 32 121.6 51.2 19.2-70.4 51.2-128 89.6-172.8-83.2 19.2-153.6 64-211.2 121.6zM633.6-64c38.4 38.4 64 102.4 89.6 172.8 57.6-19.2 96-38.4 121.6-51.2-57.6-57.6-128-102.4-211.2-121.6z"  horiz-adv-x="1024" />

    
    <glyph glyph-name="Group" unicode="&#58907;" d="M506.001664 578.56c2.56-5.12 2.56-10.24-2.56-12.8l-350.72-230.4c-5.12-2.56-10.24-2.56-12.8 2.56L1.681664 550.4c0 2.56 0 10.24 5.12 12.8l350.72 230.4c2.56 0 7.68 0 10.24-5.12l138.24-209.92zM506.001664 217.60000000000002c2.56-5.12 2.56-10.24-2.56-12.8L152.721664-25.600000000000023c-5.12-2.56-10.24-2.56-12.8 2.56L1.681664 189.44000000000005c-2.56 5.12-2.56 10.24 2.56 12.8l350.72 230.4c5.12 2.56 10.24 2.56 12.8-2.56l138.24-212.48zM1563.281664 360.96000000000004h-17.92l-35.84-209.92h-112.64l38.4 209.92h-10.24l12.8 97.28h286.72l-17.92-97.28H1665.681664c-7.68-43.52-10.24-128 40.96-125.44l-15.36-94.72c-153.6 15.36-135.68 125.44-128 220.16z m-199.68-58.88h35.84l-10.24-87.04-194.56-64 33.28 151.04h33.28l10.24 43.52h-33.28l12.8 87.04h40.96l12.8 56.32h-38.4l15.36 71.68h171.52L1435.281664 486.4h-33.28l-10.24-56.32h30.72l-12.8-84.48h-35.84l-10.24-43.52z m143.36 281.6h161.28c25.6 0 46.08-23.04 46.08-51.2s-20.48-51.2-46.08-51.2h-161.28c-25.6 0-46.08 23.04-46.08 51.2s20.48 51.2 46.08 51.2z m125.44 53.76v-7.68c0-38.4-43.52-2.56-43.52-38.4h-15.36v10.24c0 33.28 43.52 7.68 43.52 28.16v7.68h15.36z m-97.28-112.64c5.12 0 7.68 2.56 7.68 7.68 0 5.12-2.56 7.68-7.68 7.68h-10.24v12.8c0 5.12-2.56 7.68-7.68 7.68s-7.68-2.56-7.68-7.68v-10.24h-10.24c-5.12 0-7.68-2.56-7.68-7.68 0-5.12 2.56-7.68 7.68-7.68h10.24v-10.24c0-5.12 2.56-7.68 7.68-7.68 5.12 0 7.68 2.56 7.68 7.68v7.68h10.24z m74.24 7.68c0-5.12 2.56-7.68 7.68-7.68 5.12 0 7.68 2.56 7.68 7.68 0 5.12-2.56 7.68-7.68 7.68-2.56 0-7.68-2.56-7.68-7.68z m20.48-17.92c0-5.12 2.56-7.68 7.68-7.68 5.12 0 7.68 2.56 7.68 7.68 0 5.12-2.56 7.68-7.68 7.68-5.12 0-7.68-2.56-7.68-7.68z m0 38.4c0-5.12 2.56-7.68 7.68-7.68 5.12 0 7.68 2.56 7.68 7.68 0 5.12-2.56 7.68-7.68 7.68-5.12-2.56-7.68-5.12-7.68-7.68z m17.92-20.48c0-5.12 2.56-7.68 7.68-7.68 5.12 0 7.68 2.56 7.68 7.68 0 5.12-2.56 7.68-7.68 7.68-5.12 0-7.68-2.56-7.68-7.68zM1903.761664 235.51999999999998l28.16 117.76c-23.04 20.48-35.84 51.2-28.16 84.48 5.12 33.28 28.16 56.32 58.88 66.56L1947.281664 435.2l38.4-33.28 48.64 15.36 12.8 69.12c23.04-20.48 35.84-51.2 28.16-84.48-7.68-33.28-30.72-58.88-61.44-69.12l-25.6-99.84h225.28l-17.92-97.28H1714.321664l12.8 97.28h176.64zM2049.681664 501.76c-33.28 25.6-81.92 28.16-117.76 2.56-5.12-2.56-7.68-5.12-10.24-7.68l-107.52-5.12 15.36 104.96 348.16-17.92-15.36-71.68-112.64-5.12zM2469.521664 373.76h-17.92l7.68 71.68 140.8 76.8H2459.281664l15.36 104.96 243.2-33.28-15.36-71.68h-2.56l-125.44-76.8h158.72l-7.68-71.68-48.64-222.72h-74.24l43.52 222.72h-12.8l-43.52-192h-74.24l40.96 192h-10.24l-40.96-186.88H2433.681664l35.84 186.88z m-176.64-102.4l12.8 69.12h-48.64l12.8 87.04h51.2l10.24 48.64h79.36l-7.68-48.64h40.96l-10.24-87.04h-46.08l-12.8-69.12h40.96l-5.12-56.32-194.56-64 25.6 122.88h51.2z m138.24 320l-7.68-5.12c-2.56-2.56-7.68 0-7.68 2.56-2.56 2.56 0 7.68 2.56 7.68l7.68 5.12c2.56 2.56 7.68 0 7.68-2.56s0-7.68-2.56-7.68z m-38.4-64v-17.92c0-2.56-2.56-5.12-5.12-5.12h-33.28c-2.56 0-5.12 2.56-5.12 5.12v17.92c-10.24 10.24-20.48 25.6-20.48 35.84 0 23.04 17.92 43.52 43.52 43.52 23.04 0 43.52-17.92 43.52-43.52-2.56-10.24-12.8-25.6-23.04-35.84z m-20.48 87.04c-2.56 0-5.12 2.56-5.12 5.12v7.68c0 2.56 2.56 5.12 5.12 5.12s5.12-2.56 5.12-5.12v-7.68c0-2.56-2.56-5.12-5.12-5.12z m-46.08-84.48l-7.68-5.12c-2.56-2.56-7.68 0-7.68 2.56-2.56 2.56 0 7.68 2.56 7.68l7.68 5.12c2.56 2.56 7.68 0 7.68-2.56s0-5.12-2.56-7.68z m-7.68 56.32l-7.68 5.12c-2.56 2.56-5.12 5.12-2.56 7.68 2.56 2.56 5.12 5.12 7.68 2.56l7.68-5.12c2.56-2.56 5.12-5.12 2.56-7.68s-5.12-5.12-7.68-2.56z m38.4-87.04h28.16c2.56 0 5.12-2.56 5.12-5.12s-2.56-5.12-5.12-5.12H2356.881664c-2.56 0-5.12 2.56-5.12 5.12s2.56 5.12 5.12 5.12z m66.56 40.96l7.68-5.12c2.56 0 2.56-5.12 2.56-7.68-2.56-2.56-5.12-5.12-7.68-2.56l-7.68 5.12c-2.56 2.56-5.12 5.12-2.56 7.68 2.56 2.56 5.12 5.12 7.68 2.56zM1000.081664 371.20000000000005c-5.12 15.36-7.68 30.72-7.68 48.64v102.4h-151.04l-7.68-28.16c-30.72-17.92-51.2-51.2-51.2-89.6 0-23.04 7.68-43.52 20.48-61.44l-10.24-46.08h-115.2l51.2 225.28 15.36 71.68h245.76v40.96h76.8v-38.4h128l-15.36-74.24h-112.64v-92.16c10.24 10.24 17.92 23.04 25.6 38.4 2.56 5.12 7.68 12.8 10.24 17.92l69.12-35.84c-5.12-7.68-7.68-15.36-12.8-23.04-15.36-25.6-28.16-46.08-46.08-64 10.24-2.56 23.04-2.56 35.84-2.56v-76.8c-40.96 0-74.24 7.68-102.4 25.6-7.68-5.12-15.36-10.24-33.28-23.04l-40.96 64c15.36 12.8 20.48 17.92 28.16 20.48z m15.36-94.72H1153.681664l33.28-120.32H1102.481664l-23.04 89.6c-15.36-69.12-76.8-122.88-151.04-122.88-71.68 0-133.12 48.64-148.48 115.2l-25.6-81.92h-84.48l40.96 120.32h133.12c0-46.08 38.4-84.48 84.48-84.48 48.64 0 87.04 38.4 87.04 84.48z m-84.48-61.44c-35.84 0-66.56 28.16-66.56 66.56h130.56c0-38.4-28.16-66.56-64-66.56z m174.08 409.6l66.56-10.24v-17.92h-66.56v28.16z m-220.16-312.32c-51.2 0-92.16 40.96-92.16 92.16s40.96 92.16 92.16 92.16 92.16-40.96 92.16-92.16-40.96-92.16-92.16-92.16z m0 38.4c28.16 0 51.2 23.04 51.2 51.2s-23.04 51.2-51.2 51.2-51.2-23.04-51.2-51.2 23.04-51.2 51.2-51.2z m0 92.16c20.48 0 38.4-17.92 38.4-38.4s-17.92-38.4-38.4-38.4S846.481664 384 846.481664 404.48s17.92 38.4 38.4 38.4z m28.16-51.2c2.56 2.56 2.56 7.68 2.56 12.8s0 7.68-2.56 12.8l-12.8-10.24v-5.12l12.8-10.24z m-2.56 30.72c-5.12 5.12-12.8 10.24-20.48 12.8v-17.92c2.56 0 2.56-2.56 5.12-2.56l15.36 7.68z m-25.6-25.6c2.56 0 7.68 2.56 7.68 7.68 0 2.56-2.56 7.68-7.68 7.68-2.56 0-7.68-2.56-7.68-7.68 2.56-5.12 5.12-7.68 7.68-7.68z m-2.56 35.84c-7.68 0-15.36-5.12-20.48-12.8l15.36-7.68c2.56 0 2.56 2.56 5.12 2.56v17.92z m-25.6-17.92c-2.56-2.56-2.56-7.68-2.56-12.8s0-7.68 2.56-12.8l15.36 12.8v2.56 2.56l-15.36 7.68z m5.12-30.72c5.12-7.68 12.8-10.24 20.48-12.8v17.92c-2.56 0-2.56 2.56-5.12 2.56l-15.36-7.68z m28.16-10.24c7.68 0 15.36 5.12 20.48 12.8l-15.36 7.68s-2.56-2.56-5.12-2.56v-17.92z"  horiz-adv-x="2868" />

    
    <glyph glyph-name="Clip" unicode="&#58908;" d="M294.835374 895.129252L221.344218 822.334694l437.463945-440.25034L217.687075-54.682993 290.655782-128l514.438096 509.387755z"  horiz-adv-x="1024" />

    
    <glyph glyph-name="fpv_" unicode="&#58910;" d="M144.256 651.984c0 9.392 0 21.168 20.16 21.168h109.216v14.24h-109.216c-27.392 0-36.416-14.24-36.416-35.408v-106.176h16.256v106.176zM144.256 85.68c0-9.392 0-21.168 20.16-21.168h109.216v-14.24h-109.216c-27.392 0-36.416 14.24-36.416 35.408V191.84h16.256v-106.176zM881.376 651.984c0 9.392 0 21.168-20.16 21.168H752v14.24h109.232c27.392 0 36.4-14.24 36.4-35.408v-106.176h-16.256v106.176zM881.376 85.68c0-9.392 0-21.168-20.16-21.168H752v-14.24h109.232c27.392 0 36.4 14.24 36.4 35.408V191.84h-16.256v-106.176zM766.912 348.784c-41.488-43.424-143.584-134.928-263.232-134.928-119.648 0-223.36 93.056-263.232 134.928-11.168 12.4-11.168 29.456 0 41.872 41.488 43.424 143.584 134.912 263.232 134.912 119.648 0 223.344-93.04 263.232-134.912 11.168-12.416 11.168-29.472 0-41.872zM503.68 235.952c116.272 0 217.168 93.088 256.496 132.992-39.328 39.888-140.224 132.976-256.496 132.976-116.272 0-217.168-93.088-256.496-132.976 39.328-39.904 140.224-132.992 256.48-132.992zM503.68 424.16c-31.824 0-56.816-24.288-56.816-55.216s24.992-55.232 56.816-55.232 56.816 24.304 56.816 55.232-24.992 55.232-56.816 55.232z"  horiz-adv-x="1024" />

    
    <glyph glyph-name="fpv_1" unicode="&#58911;" d="M837.024 606.512a14039.216 14039.216 0 0 1-111.68-91.264V590.88c0 55.504-18.624 80.592-68.688 80.592H163.136C108.928 671.472 80 653.12 80 590.88v-442.56c0-40.72 33.776-66.928 75.696-66.928h500.96c32.8 0 68.688 13.504 68.688 66.944v75.52c37.952-24.704 72.208-66.336 113.408-92.24a129.968 129.968 0 0 1 65.536-20.256c9.056-0.208 17.92 2.08 25.648 6.624 14.64 7.696 29.2 25.792 29.2 67.12V553.92c3.776 62.64-54.848 107.248-122.112 52.608z m-181.12-506.752h-495.2c-42.608 0-63.296 21.568-63.296 57.104V595.184c0 37.44 24.8 57.84 63.28 57.84h495.2c41.52 0 51.6-26.528 51.6-57.84v-449.696c0-29.184-16.304-45.728-51.6-45.728z m288.736 73.168c0-25.184-16.384-39.296-28.784-42.672-12.384-3.36-33.728-5.216-59.744 10.176-55.216 33.76-81.872 69.904-132.192 103.904V496.576c47.392 31.2 82.4 72.352 138.512 106.752 25.92 15.84 46.128 10.448 57.552 5.28s24.656-26.624 24.656-47.072v-388.608zM265.184 438.784h20.992v-79.36h105.728v79.36h20.992V256h-20.992v85.248h-105.728V256h-20.992V438.784z m179.04 0h65.536c28.928 0 50.688-8.192 65.536-25.088 13.568-15.36 20.48-37.632 20.48-66.304 0-28.16-7.424-50.432-22.016-66.304C558.4 264.448 536.384 256 507.712 256h-63.488V438.784z m20.992-18.176v-146.432h38.912c23.808 0 41.728 6.4 53.76 18.944 11.264 12.288 17.152 30.464 17.152 54.272 0 24.576-5.376 42.752-15.872 54.528-11.264 12.544-28.672 18.688-52.736 18.688h-41.216zM200 568m-24 0a24 24 0 1 1 48 0 24 24 0 1 1-48 0Z"  horiz-adv-x="1024" />

    
    <glyph glyph-name="fpv_2" unicode="&#58909;" d="M813.44 112H289.104a166.88 166.88 0 0 0-36.32 4.32C153.184 135.76 80 222.72 80 322.624c0 105.856 81.44 195.488 187.632 208.992 46.208 104.768 149.664 172.288 266.848 172.288 156.272 0 283.92-121.52 290.528-273.28 84.176-5.92 150.768-75.056 150.768-159.312 0-88.032-73.184-159.312-162.32-159.312zM538.816 685.92c-124.176 3.808-210.576-67.008-259.664-170.096-128.88-17.52-180.992-108.928-180.992-199.936 0-104.8 98.448-180.544 180.992-187.68H820c64.656 6.768 140.72 65.12 140.72 137.12 0 71.968-62.336 143.36-126.864 146.032H809.12c-9.76 159.52-117.168 269.888-270.304 274.56zM623.68 392.352h-80.112c-6.048 0-10.032 0-12.688 2.816-3.84 3.776-3.84 9.392 0 12.848l46.08 43.888a9.408 9.408 0 0 0 13.456 0l46.576-43.888c3.84-3.76 3.84-9.376 0-12.848-1.6-1.888-6.096-2.816-13.312-2.816zM495.68 361.264h-80.112c-6.048 0-10.032 0-12.688-2.832-3.84-3.776-3.84-9.392 0-12.848l46.08-43.888c3.84-3.776 9.936-3.776 13.456 0l46.576 43.888c3.84 3.776 3.84 9.392 0 12.848-1.6 1.888-6.096 2.832-13.312 2.832zM584 298.944c-4.528 0-8 2.688-8 10.528v131.456c0 7.824 3.472 13.808 8 13.808 4.528 0 8-5.984 8-13.808v-131.456c0-7.84-3.472-10.528-8-10.528zM456 454.736c-4.528 0-8-2.688-8-10.512v-131.456c0-7.84 3.472-13.824 8-13.824 4.528 0 8 5.984 8 13.824v131.456c0 7.824-3.472 10.512-8 10.512z"  horiz-adv-x="1024" />

    
    <glyph glyph-name="fpv_3" unicode="&#58912;" d="M774.864 205.872l-10.528 20.256s94.64 84.704 94.64 207.744c0 140.48-84.112 217.856-84.112 217.856L785.376 672S880 592.576 880 433.872c0-126.576-105.136-228-105.136-228zM690.752 297.072s52.56 72.272 52.56 136.8c0 101.504-52.56 157.056-52.56 157.056l10.496 20.272s63.088-64.72 63.088-177.328c0-84.032-63.088-157.072-63.088-157.072l-10.496 20.272zM606.624 357.872s31.552 39.44 31.552 81.056c0 65.504-31.552 81.072-31.552 81.072l10.512 20.272s42.064-28.688 42.064-101.344c0-54.192-42.064-101.328-42.064-101.328l-10.512 20.272zM487.472 84.752L503.952 336h15.712l16.896-251.248zM512 398.4c-23.232 0-42.064 18.144-42.064 40.528 0 22.4 18.832 40.544 42.064 40.544s42.064-18.16 42.064-40.544c0-22.384-18.832-40.528-42.064-40.528zM406.864 337.6S364.8 384.736 364.8 438.928c0 72.656 42.064 101.344 42.064 101.344l10.512-20.272s-31.552-15.568-31.552-81.072c0-41.616 31.552-81.056 31.552-81.056l-10.512-20.272zM322.752 276.8s-63.088 73.04-63.088 157.072c0 112.608 63.088 177.328 63.088 177.328l10.496-20.272s-52.56-55.552-52.56-157.056c0-64.528 52.56-136.8 52.56-136.8l-10.496-20.272zM259.664 226.128l-10.528-20.256S144 307.296 144 433.872C144 592.576 238.624 672 238.624 672l10.512-20.272s-84.112-77.392-84.112-217.856c0-123.04 94.64-207.744 94.64-207.744z"  horiz-adv-x="1024" />

    
    <glyph glyph-name="fpv_4" unicode="&#58913;" d="M871.84 472.864c22.08 0 40.16-18.496 40.16-41.12v-82.208c0-22.608-18.08-41.104-40.16-41.104v-94.688c0-41.008-38.544-69.744-68.576-69.744H149.28C111.92 144 80 168.528 80 213.76V566.512c0 46.816 39.92 70.768 69.28 70.768h653.984c34.352 0 68.576-25.552 68.576-70.768v-93.664zM854.448 212.64V566.8c0 27.44-25.92 51.44-51.584 51.44H150c-26.656 0-53.184-27.552-53.184-54.672V212.64c0-34.832 29.952-51.072 53.184-51.072H802.88c23.232 0 51.584 27.296 51.584 51.072zM265.52 329.92a13.872 13.872 0 0 0-6.72 1.6c-1.792 1.04-2.8 2.432-2.8 3.872v91.136c0 3.04 4.256 5.472 9.52 5.472 5.264 0 9.536-2.448 9.536-5.472v-91.136c0-1.44-1.008-2.832-2.8-3.856a13.856 13.856 0 0 0-6.72-1.6zM313.52 350.848a13.904 13.904 0 0 0-6.72 1.6c-1.792 1.024-2.8 2.4-2.8 3.872v70.224c0 3.008 4.272 5.456 9.52 5.456 5.28 0 9.536-2.448 9.536-5.456v-70.24c0-1.44-1.008-2.832-2.784-3.856a13.888 13.888 0 0 0-6.752-1.6zM377.52 282.992a13.888 13.888 0 0 0-6.72 1.6c-1.792 1.024-2.8 2.416-2.8 3.872v186.08c0 3.008 4.272 5.456 9.52 5.456 5.28 0 9.536-2.448 9.536-5.456v-186.08c0-1.44-1.008-2.848-2.784-3.872a13.888 13.888 0 0 0-6.752-1.6zM425.52 226.88a13.872 13.872 0 0 0-6.72 1.6c-1.792 1.024-2.8 2.416-2.8 3.872V538.528c0 3.04 4.272 5.472 9.52 5.472 5.28 0 9.536-2.448 9.536-5.472v-306.176c0-1.44-1.008-2.848-2.784-3.872a13.888 13.888 0 0 0-6.752-1.6zM473.52 251.216a13.856 13.856 0 0 0-6.72 1.6c-1.792 1.024-2.8 2.416-2.8 3.872V522.528c0 3.024 4.272 5.472 9.52 5.472 5.28 0 9.536-2.448 9.536-5.472v-265.84c0-1.44-1.008-2.848-2.8-3.872a13.856 13.856 0 0 0-6.72-1.6zM521.52 290.672a13.84 13.84 0 0 0-6.72 1.6c-1.792 1.024-2.8 2.4-2.8 3.856v162.4c0 3.024 4.272 5.472 9.52 5.472 5.28 0 9.536-2.448 9.536-5.472v-162.4c0-1.44-1.008-2.832-2.8-3.856a13.84 13.84 0 0 0-6.72-1.6zM569.52 323.888a13.856 13.856 0 0 0-6.72 1.6c-1.792 1.024-2.8 2.416-2.8 3.872v113.184c0 3.008 4.256 5.456 9.52 5.456 5.264 0 9.536-2.448 9.536-5.456v-113.184c0-1.44-1.008-2.848-2.8-3.872a13.856 13.856 0 0 0-6.72-1.6zM633.52 280.24a13.856 13.856 0 0 0-6.72 1.6c-1.792 1.024-2.8 2.416-2.8 3.872V474.528c0 3.024 4.256 5.472 9.52 5.472 5.264 0 9.536-2.448 9.536-5.472v-188.816c0-1.44-1.008-2.848-2.8-3.872a13.856 13.856 0 0 0-6.72-1.6zM681.52 349.824a13.824 13.824 0 0 0-6.72 1.6c-1.792 1.024-2.8 2.4-2.8 3.856V426.56c0 3.008 4.256 5.456 9.52 5.456 5.264 0 9.536-2.448 9.536-5.456v-71.264c0-1.44-1.008-2.832-2.8-3.856a13.84 13.84 0 0 0-6.72-1.6z"  horiz-adv-x="1024" />

    
    <glyph glyph-name="fpv_5" unicode="&#58914;" d="M400.384 309.76c3.584-7.936 8.96-12.032 16.128-12.032 6.912 0 12.288 4.096 15.872 12.288l34.304 79.616c6.144 14.08 16.64 44.544 23.552 62.72-1.024-18.944-2.816-53.504-3.072-71.168l-1.28-81.92c0-8.96 4.608-13.056 14.08-13.056 9.216 0 13.824 4.352 13.824 13.056V469.76c0 11.52-5.888 17.408-17.152 17.408-11.264 0-16.384-3.84-21.76-16.384l-46.336-110.08c-4.352-9.984-7.936-20.48-11.776-31.488-3.84 10.752-7.424 20.992-12.288 31.744l-49.152 110.08c-5.376 12.032-9.984 16.128-21.248 16.128-11.776 0-17.92-5.888-17.92-17.408v-170.496c0-8.704 4.608-13.056 13.824-13.056 9.472 0 14.08 4.352 14.08 13.056l-1.024 84.48c-0.256 17.408-2.048 50.432-3.072 68.608 6.656-17.152 17.92-47.104 24.832-62.72l35.584-79.872z m173.6 164.096c0 8.704-4.848 13.312-14.576 13.312-9.472 0-14.336-4.608-14.336-13.312v-174.592c0-8.704 4.864-13.056 14.336-13.056 9.728 0 14.592 4.352 14.592 13.056V473.856z m116.016-84.224l57.088 76.032a12.08 12.08 0 0 1 2.56 7.68c0 7.424-7.168 13.568-15.104 13.568a12 12 0 0 1-10.496-5.376l-51.2-70.656-51.2 70.4a13.136 13.136 0 0 1-11.008 5.632c-7.68 0-15.104-6.912-15.104-13.568 0-2.56 1.024-5.12 2.816-7.68l56.576-76.032-62.208-82.176a12.08 12.08 0 0 1-2.816-7.936c0-7.936 7.424-13.056 15.104-13.056 4.864 0 8.192 1.536 10.752 5.12l56.32 76.288 56.32-76.288c2.56-3.328 6.144-5.12 10.752-5.12 8.192 0 14.848 6.144 14.848 13.824a12.416 12.416 0 0 1-2.56 7.424l-61.44 81.92zM144 560c0 53.024 43.024 96 95.84 96h544.32A95.872 95.872 0 0 0 880 560v-352c0-53.024-43.024-96-95.84-96H239.84A95.872 95.872 0 0 0 144 208V560z m16 0v-352c0-44.208 35.84-80 80.08-80h543.84A80.048 80.048 0 0 1 864 208V560c0 44.208-35.84 80-80.08 80h-543.84A80.048 80.048 0 0 1 160 560z"  horiz-adv-x="1024" />

    
    <glyph glyph-name="fpv_skip" unicode="&#58915;" d="M512-126.737067c-282.3168 0-512 229.376-512 511.351467C0 666.555733 229.6832 896 512 896c282.282667 0 512-229.376 512-511.317333 0-281.975467-229.717333-511.3856-512-511.3856z m0 971.0592c-253.815467 0-460.288-206.2336-460.288-459.707733S258.218667-75.093333 512-75.093333s460.288 206.2336 460.288 459.707733S765.781333 844.322133 512 844.322133zM662.971733 344.302933L386.389333 620.544 422.946133 657.066667l276.5824-276.241067zM412.0576 94.071467L375.466667 130.594133 663.313067 418.133333l36.5568-36.522666z"  horiz-adv-x="1024" />

    
    <glyph glyph-name="invisible" unicode="&#58964;" d="M512 640C276.309333 640 85.333333 442.965333 85.333333 364.202667c0-78.805333 191.018667-275.797333 426.666667-275.797334 235.605333 0 426.666667 196.992 426.666667 275.797334C938.666667 442.965333 747.605333 640 512 640z m0-472.746667c-107.178667 0-193.962667 88.149333-193.962667 196.949334S404.821333 561.152 512 561.152c107.178667 0 193.962667-88.192 193.962667-196.949333 0-108.8-86.784-196.992-193.962667-196.992z m0 333.653334c-74.410667 0-134.656-61.184-134.656-136.704 0-75.605333 60.330667-136.746667 134.698667-136.746667s134.613333 61.141333 134.613333 136.746667c0 75.52-60.330667 136.746667-134.698667 136.746666z"  horiz-adv-x="1024" />

    
    <glyph glyph-name="close_solid" unicode="&#58966;" d="M512 809.856A425.386667 425.386667 0 0 0 937.856 384 425.386667 425.386667 0 0 0 512-41.856 425.386667 425.386667 0 0 0 86.144 384 425.386667 425.386667 0 0 0 512 809.856z m206.293333-580.266667L563.882667 384l154.410666 154.368-51.925333 51.925333L512 435.882667 357.632 590.293333 305.706667 538.368 460.117333 384l-154.410666-154.368 51.925333-51.925333L512 332.117333l154.368-154.410666 51.925333 51.925333z"  horiz-adv-x="1024" />

    
    <glyph glyph-name="success_line" unicode="&#58967;" d="M512-25.6c-226.2272 0-409.6 183.3728-409.6 409.6S285.7728 793.6 512 793.6s409.6-183.3728 409.6-409.6-183.3728-409.6-409.6-409.6z m0 750.9248c-188.5184 0-341.3248-152.832-341.3248-341.3248 0-188.5184 152.832-341.3248 341.3248-341.3248 188.5184 0 341.3248 152.832 341.3248 341.3248A341.3248 341.3248 0 0 1 512 725.3248z m-39.808-471.7824a35.6608 35.6608 0 0 0-48.64 0l-87.5008 115.6864a31.616 31.616 0 0 0 0 46.2336c13.696 12.8 34.9696 12.8 48.6656 0l67.1488-88.7296 190.6176 181.2736a35.6608 35.6608 0 0 0 48.64 0 31.5392 31.5392 0 0 0 0-46.2592l-218.9312-208.2048z"  horiz-adv-x="1024" />

    
    <glyph glyph-name="wechat_color" unicode="&#58970;" d="M512 384m-512 0a512 512 0 1 1 1024 0 512 512 0 1 1-1024 0ZM633.6 494.933333c-115.2 0-204.8-85.333333-204.8-189.866666 0-17.066667 2.133333-34.133333 6.4-49.066667h-23.466667c-29.866667 0-53.333333 6.4-85.333333 12.8l-85.333333-42.666667 23.466666 72.533334c-59.733333 42.666667-96 96-96 162.133333 0 113.066667 108.8 202.666667 241.066667 202.666667 119.466667 0 221.866667-72.533333 243.2-168.533334h-19.2zM853.333333 307.2c0-53.333333-36.266667-102.4-85.333333-136.533333l19.2-59.733334-66.133333 36.266667c-23.466667-6.4-49.066667-12.8-72.533334-12.8-115.2 0-204.8 76.8-204.8 172.8s89.6 172.8 204.8 172.8c108.8 2.133333 204.8-76.8 204.8-172.8zM503.466667 558.933333c-17.066667 0-36.266667-10.666667-36.266667-29.866666 0-17.066667 17.066667-29.866667 36.266667-29.866667 19.2 0 29.866667 12.8 29.866666 29.866667 0 17.066667-12.8 29.866667-29.866666 29.866666z m-168.533334-59.733333c17.066667 0 29.866667 12.8 29.866667 29.866667 0 17.066667-12.8 29.866667-29.866667 29.866666s-36.266667-10.666667-36.266666-29.866666c0-17.066667 17.066667-29.866667 36.266666-29.866667z m247.466667-160c19.2 0 29.866667 12.8 29.866667 23.466667s-12.8 23.466667-29.866667 23.466666c-8.533333 0-17.066667-4.266667-21.333333-10.666666-4.266667-8.533333-4.266667-17.066667 0-23.466667 4.266667-10.666667 10.666667-14.933333 21.333333-12.8z m132.266667 0c17.066667 0 29.866667 12.8 29.866666 23.466667s-12.8 23.466667-29.866666 23.466666c-8.533333 0-17.066667-4.266667-21.333334-10.666666-4.266667-8.533333-4.266667-17.066667 0-23.466667 4.266667-10.666667 12.8-14.933333 21.333334-12.8z"  horiz-adv-x="1024" />

    
    <glyph glyph-name="collect_small" unicode="&#58971;" d="M729.045333-42.666667a84.906667 84.906667 0 0 0-38.058666 10.069334l-178.730667 92.842666-179.84-92.672a78.08 78.08 0 0 0-37.717333-9.6c-17.28-0.085333-34.133333 5.632-48 16.298667a88.448 88.448 0 0 0-32.128 84.48l36.778666 198.144-141.013333 136.448a92.544 92.544 0 0 0-21.888 87.168l0.256 1.024c10.24 31.872 35.712 54.229333 66.56 58.538667l195.84 36.949333 87.893333 185.429333C453.205333 791.808 481.92 810.666667 512.298667 810.666667a80.64 80.64 0 0 0 73.514666-48.768l87.637334-184.789334 195.925333-35.584c31.061333-4.693333 56.618667-27.861333 65.28-59.221333a88.021333 88.021333 0 0 0-20.437333-87.466667l-0.469334-0.512-140.586666-137.429333 35.541333-198.485333a86.826667 86.826667 0 0 0-31.744-83.797334 73.6 73.6 0 0 0-47.872-17.28z"  horiz-adv-x="1024" />

    
    <glyph glyph-name="close_small" unicode="&#58972;" d="M566.869333 384l190.165334 190.165333a39.765333 39.765333 0 0 1 0 54.869334 39.765333 39.765333 0 0 1-54.869334 0L512 438.869333 321.834667 629.034667a39.765333 39.765333 0 0 1-54.869334 0 39.765333 39.765333 0 0 1 0-54.869334L457.130667 384l-190.165334-190.165333a39.765333 39.765333 0 0 1 0-54.869334 39.765333 39.765333 0 0 1 54.869334 0L512 329.130667l190.165333-190.165334a39.765333 39.765333 0 0 1 54.869334 0 39.765333 39.765333 0 0 1 0 54.869334L566.869333 384z"  horiz-adv-x="1024" />

    
    <glyph glyph-name="qq" unicode="&#58922;" d="M512 896c283.733333 0 512-228.266667 512-512S795.733333-128 512-128 0 100.266667 0 384 228.266667 896 512 896zM512 896C228.266667 896 0 667.733333 0 384s228.266667-512 512-512c281.6 0 512 228.266667 512 512S793.6 896 512 896z m219.733333-633.6s-14.933333-42.666667-44.8-81.066667c0 0 51.2-17.066667 46.933334-64 0 0 2.133333-51.2-110.933334-46.933333 0 0-78.933333 6.4-102.4 38.4h-21.333333c-23.466667-34.133333-102.4-40.533333-102.4-40.533333-113.066667-4.266667-110.933333 46.933333-110.933333 46.933333-4.266667 44.8 46.933333 64 46.933333 64-29.866667 38.4-44.8 81.066667-44.8 81.066667-70.4-113.066667-64 14.933333-64 14.933333 12.8 76.8 68.266667 125.866667 68.266667 125.866667-8.533333 68.266667 21.333333 81.066667 21.333333 81.066666 6.4 213.333333 189.866667 211.2 194.133333 211.2 4.266667 0 187.733333 4.266667 194.133334-211.2 0 0 29.866667-12.8 21.333333-81.066666 0 0 55.466667-49.066667 68.266667-125.866667 4.266667 4.266667 10.666667-125.866667-59.733334-12.8z"  horiz-adv-x="1024" />

    
    <glyph glyph-name="pyq" unicode="&#58923;" d="M512 896C230.4 896 0 667.733333 0 384s228.266667-512 512-512 512 228.266667 512 512S793.6 896 512 896zM616.533333 625.066667c55.466667-23.466667 100.266667-66.133333 128-119.466667l-128-128V625.066667z m-104.533333 21.333333c27.733333 0 55.466667-4.266667 78.933333-12.8v-181.333333l-40.533333 40.533333-134.4 134.4c29.866667 12.8 64 19.2 96 19.2zM392.533333 618.666667l123.733334-123.733334H275.2c23.466667 51.2 64 96 117.333333 123.733334z m6.4-275.2V149.333333c-53.333333 25.6-98.133333 70.4-123.733333 123.733334l123.733333 123.733333v-53.333333z m0 87.466666l-134.4-134.4c-10.666667 27.733333-14.933333 57.6-14.933333 87.466667 0 29.866667 4.266667 57.6 14.933333 85.333333h172.8l-38.4-38.4zM512 121.6c-29.866667 0-59.733333 4.266667-87.466667 14.933333v179.2l38.4-38.4 138.666667-138.666666c-27.733333-10.666667-59.733333-17.066667-89.6-17.066667z m115.2 27.733333l-128 128h251.733333c-23.466667-55.466667-68.266667-100.266667-123.733333-128z m134.4 153.6h-183.466667l38.4 38.4 138.666667 138.666667c23.466667-55.466667 25.6-119.466667 6.4-177.066667z"  horiz-adv-x="1024" />

    
    <glyph glyph-name="wechat" unicode="&#58924;" d="M512 896C228.266667 896 0 667.733333 0 384s228.266667-512 512-512 512 228.266667 512 512S795.733333 896 512 896zM375.466667 270.933333c-4.266667 0-21.333333 6.4-27.733334 6.4-6.4-4.266667-12.8-10.666667-21.333333-12.8-21.333333-6.4-38.4-17.066667-57.6-27.733333v4.266667c6.4 6.4 6.4 17.066667 10.666667 27.733333s10.666667 23.466667 12.8 38.4c-38.4 21.333333-68.266667 61.866667-81.066667 106.666667-10.666667 27.733333-6.4 72.533333 4.266667 96 23.466667 55.466667 64 91.733333 119.466666 113.066666 17.066667 6.4 34.133333 10.666667 55.466667 12.8 21.333333 4.266667 57.6 4.266667 74.666667 0 10.666667-4.266667 21.333333-4.266667 29.866666-4.266666 51.2-17.066667 89.6-38.4 119.466667-78.933334 12.8-17.066667 29.866667-40.533333 29.866667-72.533333-27.733333 4.266667-61.866667-4.266667-81.066667-10.666667-61.866667-23.466667-106.666667-57.6-125.866667-123.733333-4.266667-12.8-6.4-40.533333-4.266666-57.6 0-6.4 4.266667-12.8 4.266666-21.333333-21.333333 2.133333-44.8 2.133333-61.866666 4.266666z m439.466666 4.266667c-6.4-21.333333-23.466667-51.2-38.4-61.866667-6.4-4.266667-27.733333-21.333333-29.866666-27.733333 6.4-6.4 6.4-21.333333 10.666666-27.733333s6.4-12.8 6.4-23.466667c-10.666667 10.666667-34.133333 17.066667-44.8 23.466667-6.4 4.266667-12.8 10.666667-21.333333 10.666666-4.266667 0-10.666667-4.266667-12.8-4.266666-10.666667-4.266667-23.466667-4.266667-34.133333-4.266667-10.666667-4.266667-29.866667 0-38.4 4.266667h-12.8c-23.466667 6.4-44.8 10.666667-64 21.333333-29.866667 17.066667-57.6 44.8-72.533334 78.933333-27.733333 64 4.266667 132.266667 44.8 164.266667 21.333333 12.8 44.8 27.733333 72.533334 38.4 10.666667 4.266667 17.066667 4.266667 27.733333 6.4 6.4 0 12.8 0 17.066667 4.266667 91.733333 0 149.333333-27.733333 183.466666-85.333334 6.4-36.266667 21.333333-81.066667 6.4-117.333333zM337.066667 544c-10.666667-6.4-17.066667-6.4-21.333334-21.333333-6.4-23.466667 17.066667-44.8 38.4-38.4 12.8 4.266667 29.866667 23.466667 21.333334 40.533333-6.4 17.066667-17.066667 19.2-38.4 19.2z m230.4-153.6l-10.666667-4.266667c-6.4-4.266667-21.333333-21.333333-10.666667-29.866666 4.266667-10.666667 17.066667-21.333333 34.133334-12.8 6.4 4.266667 10.666667 10.666667 12.8 12.8 4.266667 21.333333-6.4 34.133333-25.6 34.133333zM512 486.4c34.133333 10.666667 27.733333 57.6-17.066667 57.6-10.666667-6.4-21.333333-6.4-23.466666-21.333333-6.4-19.2 17.066667-42.666667 40.533333-36.266667z m183.466667-96c-6.4-4.266667-12.8-4.266667-17.066667-10.666667-6.4-10.666667-4.266667-29.866667 4.266667-38.4 21.333333-12.8 40.533333 4.266667 40.533333 27.733334-6.4 10.666667-6.4 21.333333-27.733333 21.333333z"  horiz-adv-x="1024" />

    
    <glyph glyph-name="qzone" unicode="&#58925;" d="M512 896c283.733333 0 512-228.266667 512-512S795.733333-128 512-128 0 100.266667 0 384 228.266667 896 512 896zM512 896C228.266667 896 0 667.733333 0 384s228.266667-512 512-512 512 228.266667 512 512S795.733333 896 512 896z m281.6-473.6c-8.533333-6.4-14.933333-14.933333-23.466667-21.333333-23.466667-17.066667-42.666667-40.533333-64-61.866667-6.4-6.4-36.266667-29.866667-38.4-38.4 2.133333-4.266667 4.266667-23.466667 6.4-32 8.533333 0 25.6 0 32-2.133333h-29.866666l29.866666-174.933334H704c-8.533333 8.533333-34.133333 19.2-46.933333 25.6-32 17.066667-66.133333 34.133333-98.133334 51.2-10.666667 6.4-23.466667 12.8-34.133333 17.066667-2.133333 2.133333-8.533333 6.4-12.8 6.4-2.133333 0-4.266667-4.266667-6.4-4.266667-10.666667-6.4-21.333333-10.666667-32-17.066666-36.266667-19.2-70.4-36.266667-106.666667-53.333334-14.933333-8.533333-32-21.333333-46.933333-25.6l36.266667 213.333334c-10.666667 6.4-19.2 19.2-27.733334 27.733333-17.066667 14.933333-32 34.133333-51.2 46.933333l-21.333333 21.333334c-14.933333 10.666667-25.6 23.466667-38.4 36.266666-6.4 6.4-12.8 10.666667-17.066667 17.066667l38.4 6.4c17.066667 4.266667 34.133333 4.266667 49.066667 6.4 23.466667 6.4 46.933333 4.266667 70.4 10.666667 12.8 2.133333 51.2 2.133333 59.733333 8.533333 4.266667 6.4 6.4 12.8 10.666667 19.2 6.4 14.933333 14.933333 27.733333 21.333333 42.666667 21.333333 42.666667 44.8 85.333333 64 128v-2.133334c4.266667-4.266667 4.266667-10.666667 8.533334-14.933333 6.4-12.8 12.8-27.733333 21.333333-42.666667l68.266667-134.4c27.733333-2.133333 59.733333-6.4 87.466666-12.8 23.466667-6.4 46.933333-4.266667 70.4-10.666666 12.8-2.133333 51.2-2.133333 59.733334-8.533334-14.933333-6.4-23.466667-19.2-36.266667-27.733333zM480 283.733333c4.266667 4.266667 10.666667 6.4 17.066667 10.666667 12.8 8.533333 23.466667 17.066667 36.266666 25.6 32 21.333333 64 46.933333 96 68.266667 8.533333 6.4 27.733333 17.066667 34.133334 25.6 2.133333 4.266667 4.266667 10.666667 2.133333 17.066666-2.133333 6.4-12.8 4.266667-23.466667 4.266667H576c-6.4-4.266667-42.666667 0-51.2 0l-128-2.133333c-10.666667 0-46.933333 2.133333-53.333333 0 12.8 0 25.6-2.133333 38.4-4.266667 14.933333-4.266667 29.866667-2.133333 44.8-6.4h17.066666c23.466667-6.4 51.2-6.4 74.666667-10.666667 14.933333-4.266667 29.866667-2.133333 44.8-6.4 6.4-2.133333 14.933333 0 19.2-2.133333h-2.133333c-12.8-12.8-38.4-21.333333-53.333334-29.866667L405.333333 302.933333c-8.533333-6.4-23.466667-14.933333-27.733333-23.466666-2.133333-6.4-2.133333-21.333333 4.266667-23.466667h17.066666l279.466667 12.8v2.133333l-198.4 12.8z"  horiz-adv-x="1024" />

    
    <glyph glyph-name="weibo" unicode="&#58926;" d="M512 896c283.733333 0 512-228.266667 512-512S795.733333-128 512-128 0 100.266667 0 384 228.266667 896 512 896zM448 298.666667c-4.266667 0-8.533333 0-12.8-4.266667l-2.133333-2.133333-2.133334-2.133334-2.133333-2.133333v-8.533333l2.133333-2.133334c2.133333-2.133333 4.266667-4.266667 8.533334-4.266666s8.533333 0 10.666666 4.266666c2.133333 2.133333 4.266667 4.266667 4.266667 6.4 2.133333 2.133333 2.133333 4.266667 2.133333 6.4 0 2.133333 0 4.266667-2.133333 6.4 0 0-2.133333 2.133333-6.4 2.133334zM413.866667 268.8c-2.133333 2.133333-4.266667 4.266667-8.533334 6.4-2.133333 2.133333-6.4 2.133333-10.666666 4.266667h-12.8c-6.4 0-12.8-2.133333-19.2-6.4-6.4-4.266667-10.666667-8.533333-12.8-14.933334-2.133333-6.4-4.266667-10.666667-4.266667-17.066666 0-2.133333 0-4.266667 2.133333-6.4 0-2.133333 2.133333-4.266667 2.133334-6.4 2.133333-2.133333 2.133333-4.266667 4.266666-6.4 2.133333-2.133333 4.266667-4.266667 6.4-4.266667 2.133333 0 4.266667-2.133333 6.4-2.133333 2.133333 0 4.266667-2.133333 8.533334-2.133334h8.533333c6.4 0 12.8 2.133333 19.2 6.4 6.4 4.266667 10.666667 8.533333 12.8 12.8 4.266667 4.266667 4.266667 10.666667 4.266667 17.066667 0 4.266667 0 6.4-2.133334 10.666667 0 4.266667-2.133333 6.4-4.266666 8.533333zM578.133333 384c-38.4 21.333333-87.466667 29.866667-145.066666 27.733333-57.6-2.133333-104.533333-17.066667-145.066667-44.8-38.4-27.733333-59.733333-59.733333-59.733333-96 0-38.4 19.2-68.266667 59.733333-93.866666 40.533333-25.6 87.466667-36.266667 145.066667-32 55.466667 2.133333 102.4 19.2 142.933333 49.066666 40.533333 29.866667 59.733333 64 59.733333 102.4 2.133333 36.266667-17.066667 66.133333-57.6 87.466667z m-53.333333-128c-2.133333-12.8-6.4-23.466667-14.933333-32-19.2-23.466667-42.666667-38.4-72.533334-44.8-29.866667-6.4-61.866667-2.133333-96 14.933333-6.4 2.133333-10.666667 6.4-14.933333 12.8-4.266667 4.266667-6.4 8.533333-8.533333 12.8-2.133333 4.266667-4.266667 8.533333-4.266667 12.8 0 4.266667-2.133333 8.533333-2.133333 8.533334v8.533333 14.933333c0 6.4 2.133333 12.8 4.266666 21.333334s4.266667 14.933333 10.666667 23.466666c4.266667 8.533333 10.666667 14.933333 17.066667 23.466667 6.4 6.4 17.066667 12.8 27.733333 19.2 12.8 6.4 25.6 8.533333 40.533333 10.666667 21.333333 2.133333 40.533333 0 57.6-4.266667 17.066667-6.4 29.866667-14.933333 36.266667-25.6 8.533333-10.666667 14.933333-23.466667 17.066667-36.266667 4.266667-12.8 4.266667-27.733333 2.133333-40.533333zM512 896C228.266667 896 0 667.733333 0 384s228.266667-512 512-512c281.6 0 512 228.266667 512 512S793.6 896 512 896z m241.066667-597.333333c0-17.066667-4.266667-34.133333-12.8-51.2-14.933333-32-40.533333-57.6-76.8-81.066667-36.266667-23.466667-74.666667-38.4-115.2-46.933333-40.533333-8.533333-81.066667-12.8-119.466667-8.533334-23.466667 2.133333-46.933333 4.266667-66.133333 8.533334-21.333333 4.266667-42.666667 10.666667-66.133334 19.2s-42.666667 19.2-59.733333 32c-17.066667 12.8-32 27.733333-44.8 49.066666-12.8 19.2-19.2 42.666667-23.466667 68.266667v17.066667c0 10.666667 4.266667 27.733333 12.8 51.2 8.533333 23.466667 21.333333 44.8 38.4 68.266666l8.533334 12.8c6.4 8.533333 14.933333 17.066667 27.733333 29.866667 10.666667 12.8 23.466667 25.6 38.4 38.4 12.8 12.8 29.866667 25.6 49.066667 38.4 19.2 12.8 38.4 21.333333 55.466666 27.733333 14.933333 4.266667 27.733333 8.533333 40.533334 8.533334 12.8 0 21.333333 0 29.866666-2.133334 8.533333-2.133333 12.8-6.4 19.2-10.666666 4.266667-4.266667 8.533333-10.666667 10.666667-17.066667 2.133333-6.4 4.266667-12.8 4.266667-19.2 0-6.4 2.133333-10.666667 2.133333-17.066667 0-2.133333-2.133333-6.4-2.133333-10.666666s-2.133333-8.533333-2.133334-10.666667v-6.4c0-2.133333 0-4.266667 2.133334-6.4 0 0 2.133333-2.133333 4.266666-2.133333h8.533334c4.266667 0 8.533333 2.133333 12.8 2.133333l10.666666 4.266667c6.4 2.133333 14.933333 6.4 25.6 8.533333 10.666667 2.133333 21.333333 4.266667 34.133334 6.4 12.8 2.133333 23.466667 2.133333 36.266666 0 12.8-2.133333 21.333333-6.4 27.733334-14.933333 4.266667-4.266667 6.4-8.533333 10.666666-14.933334 2.133333-4.266667 4.266667-10.666667 4.266667-14.933333v-14.933333c0-4.266667-2.133333-8.533333-2.133333-12.8 0-4.266667-2.133333-6.4-4.266667-10.666667s-2.133333-6.4-2.133333-6.4 0-2.133333-2.133334-2.133333l-10.666666-2.133334c-2.133333-2.133333-2.133333-6.4 2.133333-8.533333 2.133333-2.133333 6.4-6.4 14.933333-6.4 6.4 0 12.8-4.266667 21.333334-6.4 8.533333-4.266667 17.066667-8.533333 25.6-17.066667 8.533333-8.533333 17.066667-17.066667 21.333333-27.733333 6.4-10.666667 10.666667-23.466667 10.666667-40.533333z m-40.533334 181.333333c-2.133333 36.266667-25.6 49.066667-66.133333 38.4-4.266667 0-10.666667 2.133333-12.8 6.4-4.266667 4.266667-6.4 8.533333-6.4 12.8 0 2.133333 0 6.4 2.133333 8.533333l6.4 6.4c2.133333 2.133333 6.4 2.133333 8.533334 2.133334 12.8 2.133333 25.6 2.133333 38.4 0 49.066667-8.533333 68.266667-42.666667 61.866666-102.4v-2.133334c0-2.133333-2.133333-4.266667-2.133333-6.4l-6.4-6.4c-2.133333-2.133333-6.4-2.133333-8.533333-2.133333-4.266667 0-10.666667 2.133333-12.8 6.4-4.266667 4.266667-6.4 8.533333-6.4 12.8 4.266667 8.533333 4.266667 17.066667 4.266666 25.6z m138.666667 6.4c0-19.2-4.266667-38.4-10.666667-57.6-2.133333-17.066667-10.666667-27.733333-25.6-27.733333-4.266667 0-10.666667 0-12.8 2.133333-4.266667 2.133333-6.4 4.266667-10.666666 6.4-2.133333 2.133333-4.266667 6.4-4.266667 12.8v6.4c0 2.133333 0 4.266667 2.133333 6.4 0 2.133333 0 4.266667 2.133334 6.4 0 2.133333 0 4.266667 2.133333 4.266667V448c8.533333 27.733333 6.4 57.6-8.533333 89.6-6.4 10.666667-14.933333 21.333333-23.466667 29.866667-8.533333 8.533333-19.2 14.933333-27.733333 19.2-8.533333 4.266667-19.2 8.533333-27.733334 12.8l-25.6 6.4c-8.533333 0-14.933333 2.133333-19.2 2.133333-4.266667 0-8.533333 0-10.666666-2.133333-2.133333 0-4.266667-2.133333-6.4-2.133334-2.133333 0-4.266667-2.133333-6.4-2.133333-2.133333 0-4.266667 0-6.4-2.133333H625.066667c-6.4 0-12.8 2.133333-19.2 8.533333-4.266667 4.266667-8.533333 12.8-8.533334 19.2 0 6.4 2.133333 10.666667 6.4 17.066667 4.266667 4.266667 8.533333 8.533333 14.933334 10.666666v2.133334h2.133333c38.4 6.4 70.4 8.533333 91.733333 2.133333 10.666667-2.133333 21.333333-6.4 32-10.666667s21.333333-10.666667 32-17.066666c10.666667-6.4 21.333333-14.933333 29.866667-23.466667 8.533333-8.533333 17.066667-19.2 23.466667-32 6.4-12.8 12.8-25.6 14.933333-40.533333 6.4-14.933333 8.533333-29.866667 6.4-49.066667z"  horiz-adv-x="1024" />

    
    <glyph glyph-name="line_small" unicode="&#58927;" d="M512-25.6a409.6 409.6 0 1 0 0 819.2 409.6 409.6 0 0 0 0-819.2zM512 725.333333a341.333333 341.333333 0 1 1 0-682.666666 341.333333 341.333333 0 0 1 0 682.666666z m-39.808-471.808c-13.653333-12.757333-34.944-12.757333-48.64 0l-87.509333 115.712a31.573333 31.573333 0 0 0 0 46.250667c13.696 12.8 34.986667 12.8 48.64 0l67.157333-88.746667 190.634667 181.248c13.696 12.8 34.986667 12.8 48.64 0a31.573333 31.573333 0 0 0 0-46.250666l-218.88-208.213334z"  horiz-adv-x="1024" />

    
    <glyph glyph-name="QQ" unicode="&#58929;" d="M512 384m-512 0a512 512 0 1 1 1024 0 512 512 0 1 1-1024 0ZM507.733333 91.733333c-51.2 0-100.266667 17.066667-130.133333 42.666667-14.933333-4.266667-36.266667-12.8-49.066667-21.333333-10.666667-8.533333-8.533333-17.066667-8.533333-19.2 10.666667-12.8 147.2-8.533333 187.733333-2.133334z m0 0c51.2 0 100.266667 17.066667 130.133334 42.666667 14.933333-4.266667 36.266667-12.8 49.066666-21.333333 10.666667-8.533333 8.533333-17.066667 8.533334-19.2-10.666667-12.8-149.333333-8.533333-187.733334-2.133334zM507.733333 403.2c85.333333 0 153.6 17.066667 177.066667 23.466667 6.4 2.133333 8.533333 4.266667 8.533333 4.266666v21.333334c0 115.2-53.333333 230.4-187.733333 230.4-132.266667 0-187.733333-115.2-187.733333-230.4v-21.333334s2.133333-2.133333 6.4-4.266666c25.6-4.266667 93.866667-21.333333 183.466666-23.466667z m232.533334-93.866667c-4.266667 17.066667-12.8 36.266667-19.2 55.466667h-6.4c-66.133333-19.2-145.066667-32-206.933334-29.866667-59.733333 0-140.8 10.666667-204.8 29.866667h-8.533333c-6.4-19.2-14.933333-38.4-19.2-55.466667-25.6-81.066667-17.066667-115.2-10.666667-115.2 12.8-2.133333 51.2 61.866667 51.2 61.866667 0-64 57.6-162.133333 189.866667-164.266667h4.266667c132.266667 0 189.866667 100.266667 189.866666 164.266667 0 0 38.4-64 51.2-61.866667 6.4 0 14.933333 32-10.666666 115.2zM460.8 512c-17.066667 0-34.133333 19.2-34.133333 44.8 0 25.6 12.8 46.933333 29.866666 49.066667 17.066667 0 34.133333-19.2 34.133334-46.933334 0-23.466667-12.8-44.8-29.866667-46.933333m128 46.933333c0-25.6-17.066667-46.933333-34.133333-44.8-17.066667 0-32 23.466667-29.866667 49.066667 0 25.6 17.066667 46.933333 34.133333 46.933333 17.066667-4.266667 32-25.6 29.866667-51.2M620.8 475.733333c-4.266667 10.666667-53.333333 23.466667-113.066667 23.466667s-108.8-12.8-113.066666-23.466667v-4.266666c4.266667-6.4 57.6-34.133333 113.066666-34.133334 55.466667 0 108.8 29.866667 113.066667 34.133334v4.266666M482.133333 558.933333c0-10.666667-4.266667-19.2-12.8-21.333333-8.533333 0-14.933333 6.4-14.933333 17.066667s4.266667 19.2 12.8 21.333333c6.4 0 14.933333-6.4 14.933333-17.066667m49.066667-4.266666c2.133333 2.133333 12.8 17.066667 34.133333 12.8 6.4-2.133333 8.533333-4.266667 8.533334-4.266667 0-2.133333 2.133333-2.133333 0-4.266667-2.133333-4.266667-4.266667-4.266667-6.4-4.266666-2.133333 0-17.066667 10.666667-32-4.266667 0-2.133333-2.133333-2.133333-4.266667 0V554.666667M507.733333 337.066667c-42.666667 0-91.733333 4.266667-140.8 14.933333-4.266667-23.466667-6.4-53.333333-4.266666-89.6 6.4-91.733333 59.733333-149.333333 142.933333-149.333333h4.266667c83.2 0 138.666667 57.6 142.933333 149.333333 2.133333 36.266667 0 66.133333-4.266667 89.6-49.066667-8.533333-100.266667-14.933333-140.8-14.933333M390.4 345.6V256s40.533333-8.533333 83.2-2.133333v83.2c-27.733333 0-55.466667 4.266667-83.2 8.533333M693.333333 430.933333S612.266667 405.333333 507.733333 405.333333c-106.666667 0-185.6 25.6-185.6 25.6l-27.733333-66.133333c66.133333-19.2 149.333333-34.133333 213.333333-32 61.866667 0 145.066667 12.8 213.333334 32l-27.733334 66.133333z"  horiz-adv-x="1024" />

    
    <glyph glyph-name="wechat1" unicode="&#58930;" d="M512 384m-512 0a512 512 0 1 1 1024 0 512 512 0 1 1-1024 0ZM633.6 494.933333c-115.2 0-204.8-85.333333-204.8-189.866666 0-17.066667 2.133333-34.133333 6.4-49.066667h-23.466667c-29.866667 0-53.333333 6.4-85.333333 12.8l-85.333333-42.666667 23.466666 72.533334c-59.733333 42.666667-96 96-96 162.133333 0 113.066667 108.8 202.666667 241.066667 202.666667 119.466667 0 221.866667-72.533333 243.2-168.533334h-19.2zM853.333333 307.2c0-53.333333-36.266667-102.4-85.333333-136.533333l19.2-59.733334-66.133333 36.266667c-23.466667-6.4-49.066667-12.8-72.533334-12.8-115.2 0-204.8 76.8-204.8 172.8s89.6 172.8 204.8 172.8c108.8 2.133333 204.8-76.8 204.8-172.8zM503.466667 558.933333c-17.066667 0-36.266667-10.666667-36.266667-29.866666 0-17.066667 17.066667-29.866667 36.266667-29.866667 19.2 0 29.866667 12.8 29.866666 29.866667 0 17.066667-12.8 29.866667-29.866666 29.866666z m-168.533334-59.733333c17.066667 0 29.866667 12.8 29.866667 29.866667 0 17.066667-12.8 29.866667-29.866667 29.866666s-36.266667-10.666667-36.266666-29.866666c0-17.066667 17.066667-29.866667 36.266666-29.866667z m247.466667-160c19.2 0 29.866667 12.8 29.866667 23.466667s-12.8 23.466667-29.866667 23.466666c-8.533333 0-17.066667-4.266667-21.333333-10.666666-4.266667-8.533333-4.266667-17.066667 0-23.466667 4.266667-10.666667 10.666667-14.933333 21.333333-12.8z m132.266667 0c17.066667 0 29.866667 12.8 29.866666 23.466667s-12.8 23.466667-29.866666 23.466666c-8.533333 0-17.066667-4.266667-21.333334-10.666666-4.266667-8.533333-4.266667-17.066667 0-23.466667 4.266667-10.666667 12.8-14.933333 21.333334-12.8z"  horiz-adv-x="1024" />

    
    <glyph glyph-name="weibo1" unicode="&#58931;" d="M512 384m-512 0a512 512 0 1 1 1024 0 512 512 0 1 1-1024 0ZM219.733333 281.6c0-81.066667 102.4-142.933333 232.533334-142.933333s232.533333 61.866667 232.533333 142.933333-102.4 142.933333-232.533333 142.933333-232.533333-64-232.533334-142.933333M680.533333 392.533333c-8.533333 4.266667-17.066667 4.266667-12.8 17.066667 8.533333 27.733333 12.8 49.066667 0 66.133333-21.333333 32-85.333333 32-151.466666 0 0 0-21.333333-8.533333-17.066667 8.533334 17.066667 36.266667 12.8 66.133333 0 81.066666-36.266667 36.266667-138.666667 0-224-89.6-61.866667-61.866667-102.4-134.4-102.4-192 0-110.933333 142.933333-183.466667 285.866667-183.466666 187.733333 0 309.333333 106.666667 309.333333 192-2.133333 59.733333-46.933333 91.733333-87.466667 100.266666zM456.533333 147.2c-110.933333-12.8-211.2 40.533333-219.733333 117.333333-8.533333 72.533333 76.8 142.933333 192 151.466667 110.933333 12.8 211.2-40.533333 219.733333-117.333333 6.4-72.533333-78.933333-138.666667-192-151.466667zM806.4 603.733333c-44.8 49.066667-110.933333 66.133333-174.933333 53.333334-12.8-4.266667-21.333333-17.066667-21.333334-32 8.533333-12.8 21.333333-21.333333 36.266667-17.066667 44.8 8.533333 89.6-4.266667 121.6-40.533333s40.533333-85.333333 27.733333-125.866667c-4.266667-12.8 4.266667-27.733333 17.066667-32 12.8-4.266667 27.733333 4.266667 32 17.066667 19.2 55.466667 6.4 121.6-38.4 177.066666M740.266667 539.733333c-21.333333 21.333333-53.333333 32-85.333334 27.733334-12.8-4.266667-17.066667-12.8-17.066666-27.733334 4.266667-12.8 12.8-17.066667 27.733333-17.066666 12.8 4.266667 32 0 40.533333-12.8s12.8-27.733333 8.533334-40.533334c-4.266667-12.8 4.266667-21.333333 12.8-27.733333 12.8-4.266667 21.333333 4.266667 27.733333 12.8 10.666667 27.733333 6.4 59.733333-14.933333 85.333333M467.2 360.533333c-53.333333 12.8-110.933333-12.8-138.666667-61.866666-21.333333-49.066667 0-102.4 53.333334-121.6 57.6-17.066667 125.866667 8.533333 147.2 61.866666s-4.266667 104.533333-61.866667 121.6zM426.666667 236.8c-8.533333-17.066667-36.266667-27.733333-53.333334-17.066667-17.066667 8.533333-21.333333 27.733333-12.8 44.8s32 21.333333 49.066667 17.066667c21.333333-10.666667 25.6-27.733333 17.066667-44.8z m36.266666 44.8c-4.266667-8.533333-12.8-8.533333-17.066666-8.533333-8.533333 4.266667-8.533333 8.533333-4.266667 17.066666 4.266667 4.266667 12.8 8.533333 17.066667 8.533334 4.266667-4.266667 8.533333-8.533333 4.266666-17.066667z"  horiz-adv-x="1024" />

    
    <glyph glyph-name="add_white_px" unicode="&#58932;" d="M448 448V704a64 64 0 1 0 128 0v-256h256a64 64 0 0 0 0-128H576v-256a64 64 0 0 0-128 0V320H192a64 64 0 1 0 0 128h256z"  horiz-adv-x="1024" />

    
    <glyph glyph-name="add_white_px1" unicode="&#58933;" d="M448 448V704a64 64 0 1 0 128 0v-256h256a64 64 0 0 0 0-128H576v-256a64 64 0 0 0-128 0V320H192a64 64 0 1 0 0 128h256z"  horiz-adv-x="1024" />

    
    <glyph glyph-name="arrow_right_small" unicode="&#58934;" d="M667.072 355.712a633033.6 633033.6 0 0 0-225.92-218.304c-30.976-30.016-77.184 18.688-46.08 48.768l201.024 194.304-202.048 201.088c-30.592 30.528 15.616 79.232 46.08 48.768l226.944-225.856c12.48-12.48 12.8-36.416 0-48.768z"  horiz-adv-x="1024" />

    
    <glyph glyph-name="close_solid1" unicode="&#58935;" d="M512 809.856A425.386667 425.386667 0 0 0 937.856 384 425.386667 425.386667 0 0 0 512-41.856 425.386667 425.386667 0 0 0 86.144 384 425.386667 425.386667 0 0 0 512 809.856z m206.293333-580.266667L563.882667 384l154.410666 154.368-51.925333 51.925333L512 435.882667 357.632 590.293333 305.706667 538.368 460.117333 384l-154.410666-154.368 51.925333-51.925333L512 332.117333l154.368-154.410666 51.925333 51.925333z"  horiz-adv-x="1024" />

    
    <glyph glyph-name="close_small1" unicode="&#58936;" d="M566.869333 384l190.165334 190.165333a39.765333 39.765333 0 0 1 0 54.869334 39.765333 39.765333 0 0 1-54.869334 0L512 438.869333 321.834667 629.034667a39.765333 39.765333 0 0 1-54.869334 0 39.765333 39.765333 0 0 1 0-54.869334L457.130667 384l-190.165334-190.165333a39.765333 39.765333 0 0 1 0-54.869334 39.765333 39.765333 0 0 1 54.869334 0L512 329.130667l190.165333-190.165334a39.765333 39.765333 0 0 1 54.869334 0 39.765333 39.765333 0 0 1 0 54.869334L566.869333 384z"  horiz-adv-x="1024" />

    
    <glyph glyph-name="arrow_down_small" unicode="&#58937;" d="M502.016 247.232a633033.6 633033.6 0 0 0-218.304 225.92c-30.08 30.976 18.688 77.184 48.768 46.08l194.304-201.024 201.088 201.984c30.528 30.72 79.232-15.552 48.768-46.08l-225.856-226.88c-12.48-12.544-36.48-12.8-48.768 0z"  horiz-adv-x="1024" />

    
    <glyph glyph-name="camera" unicode="&#58938;" d="M864.128 70.144H159.701333c-41.045333 0-74.368 33.322667-74.368 74.368V527.018667c0 41.045333 33.28 74.368 74.368 74.368h97.322667a25.173333 25.173333 0 0 1 23.893333 21.76l2.901334 30.72C287.573333 693.248 322.901333 725.333333 362.581333 725.333333h298.837334c39.68 0 74.965333-32.085333 78.762666-71.466666l2.901334-30.72a25.173333 25.173333 0 0 1 23.893333-21.76h97.322667c41.045333 0 74.368-33.28 74.368-74.368v-382.506667a74.624 74.624 0 0 0-74.538667-74.368zM159.701333 546.304a19.328 19.328 0 0 1-19.328-19.285333v-382.506667c0-10.453333 8.832-19.285333 19.328-19.285333h704.426667a19.541333 19.541333 0 0 1 19.328 19.285333V527.018667a19.328 19.328 0 0 1-19.328 19.328h-97.28c-39.722667 0-75.008 32.085333-78.805333 71.466666l-2.901334 30.72a25.173333 25.173333 0 0 1-23.893333 21.76h-298.666667a25.173333 25.173333 0 0 1-23.893333-21.76l-2.858667-30.72c-3.84-39.381333-39.082667-71.466667-78.805333-71.466666H159.701333z m352.213334-368.469333a178.858667 178.858667 0 0 0-178.688 178.688 178.858667 178.858667 0 0 0 178.688 178.688 178.901333 178.901333 0 0 0 178.858666-178.688 178.901333 178.901333 0 0 0-178.858666-178.688z m0 302.506666A123.818667 123.818667 0 0 1 388.266667 356.693333a123.818667 123.818667 0 0 1 123.648-123.648 123.818667 123.818667 0 0 1 123.648 123.648 123.733333 123.733333 0 0 1-123.648 123.648z"  horiz-adv-x="1024" />

    
    <glyph glyph-name="collect_small1" unicode="&#58939;" d="M729.045333-42.666667a84.906667 84.906667 0 0 0-38.058666 10.069334l-178.730667 92.842666-179.84-92.672a78.08 78.08 0 0 0-37.717333-9.6c-17.28-0.085333-34.133333 5.632-48 16.298667a88.448 88.448 0 0 0-32.128 84.48l36.778666 198.144-141.013333 136.448a92.544 92.544 0 0 0-21.888 87.168l0.256 1.024c10.24 31.872 35.712 54.229333 66.56 58.538667l195.84 36.949333 87.893333 185.429333C453.205333 791.808 481.92 810.666667 512.298667 810.666667a80.64 80.64 0 0 0 73.514666-48.768l87.637334-184.789334 195.925333-35.584c31.061333-4.693333 56.618667-27.861333 65.28-59.221333a88.021333 88.021333 0 0 0-20.437333-87.466667l-0.469334-0.512-140.586666-137.429333 35.541333-198.485333a86.826667 86.826667 0 0 0-31.744-83.797334 73.6 73.6 0 0 0-47.872-17.28z"  horiz-adv-x="1024" />

    
    <glyph glyph-name="collected_small" unicode="&#58940;" d="M729.045333-42.666667a84.906667 84.906667 0 0 0-38.058666 10.069334l-178.730667 92.842666-179.84-92.672a78.08 78.08 0 0 0-37.717333-9.6c-17.28-0.085333-34.133333 5.632-48 16.298667a88.448 88.448 0 0 0-32.128 84.48l36.778666 198.144-141.013333 136.448a92.544 92.544 0 0 0-21.888 87.168l0.256 1.024c10.24 31.872 35.712 54.229333 66.56 58.538667l195.84 36.949333 87.893333 185.429333C453.205333 791.808 481.92 810.666667 512.298667 810.666667a80.64 80.64 0 0 0 73.514666-48.768l87.637334-184.789334 195.925333-35.584c31.061333-4.693333 56.618667-27.861333 65.28-59.221333a88.021333 88.021333 0 0 0-20.437333-87.466667l-0.469334-0.512-140.586666-137.429333 35.541333-198.485333a86.826667 86.826667 0 0 0-31.744-83.797334 73.6 73.6 0 0 0-47.872-17.28z"  horiz-adv-x="1024" />

    
    <glyph glyph-name="distance_small" unicode="&#58941;" d="M878.272 364.16c16.064-24.128 20.096-52.352 12.096-72.512-12.16-24.192-32.256-36.224-60.48-36.224H217.472v-338.432a44.736 44.736 0 0 0-44.288-44.352 44.736 44.736 0 0 0-44.288 44.352V807.36C128.896 855.68 165.12 896 213.504 896h612.352c28.224 0 52.416-12.096 60.48-32.256 12.032-24.128 8-48.32-8.064-72.512l-149.12-213.504 149.12-213.568z m-668.8-32.192h564.032L616.32 573.696l157.12 241.728H209.472v-483.456z"  horiz-adv-x="1024" />

    
    <glyph glyph-name="feed" unicode="&#58942;" d="M354.432 896H118.186667A118.272 118.272 0 0 1 0 777.898667V624.213333a118.272 118.272 0 0 1 118.186667-118.186666h236.245333a118.314667 118.314667 0 0 1 118.186667 118.186666v153.6A118.272 118.272 0 0 1 354.432 896z m39.381333-271.786667a39.466667 39.466667 0 0 0-39.381333-39.381333H118.186667a39.424 39.424 0 0 0-39.381334 39.381333v153.6c0 21.76 17.664 39.424 39.381334 39.424h236.288c21.717333 0 39.381333-17.664 39.381333-39.424v-153.6z m-39.381333-281.813333H118.186667A118.314667 118.314667 0 0 1 0 224.213333v-234.026666A118.272 118.272 0 0 1 118.186667-128h236.245333a118.314667 118.314667 0 0 1 118.186667 118.186667v234.026666a118.314667 118.314667 0 0 1-118.186667 118.186667z m39.381333-352.213333c0-21.76-17.664-39.424-39.381333-39.424H118.186667a39.381333 39.381333 0 0 0-39.381334 39.424v234.026666c0 21.76 17.664 39.381333 39.381334 39.381334h236.288c21.717333 0 39.381333-17.621333 39.381333-39.381334v-234.026666z m512 271.786666h-236.245333a118.357333 118.357333 0 0 1-118.229333-118.144v-153.642666a118.314667 118.314667 0 0 1 118.186666-118.186667h236.288A118.272 118.272 0 0 1 1024-9.813333v153.6a118.314667 118.314667 0 0 1-118.186667 118.186666z m39.424-271.786666a39.466667 39.466667 0 0 0-39.424-39.424h-236.245333a39.509333 39.509333 0 0 0-39.466667 39.424V143.786667c0 21.674667 17.749333 39.381333 39.466667 39.381333h236.245333c21.76 0 39.424-17.706667 39.424-39.381333v-153.642667zM905.813333 896h-236.245333a118.314667 118.314667 0 0 1-118.229333-118.101333v-317.354667a118.314667 118.314667 0 0 1 118.186666-118.186667h236.288a118.272 118.272 0 0 1 118.186667 118.186667V777.898667A118.272 118.272 0 0 1 905.813333 896z m39.424-435.456c0-21.76-17.706667-39.381333-39.424-39.381333h-236.245333a39.466667 39.466667 0 0 0-39.466667 39.381333V777.898667c0 21.674667 17.749333 39.338667 39.466667 39.338666h236.245333c21.76 0 39.424-17.664 39.424-39.338666v-317.354667z"  horiz-adv-x="1024" />

    
    <glyph glyph-name="like_small_unselecte" unicode="&#58943;" d="M696.32 768c-69.632 0-139.264-33.578667-184.32-88.149333C466.944 734.464 397.312 768 327.68 768 200.704 768 102.4 667.306667 102.4 537.173333c0-159.488 139.264-289.578667 352.256-482.602666L512 0l57.344 54.570667C778.24 251.818667 921.6 381.866667 921.6 537.173333 921.6 667.306667 823.296 768 696.32 768z"  horiz-adv-x="1024" />

    
    <glyph glyph-name="like_tiny" unicode="&#58944;" d="M742.4 832c-87.04 0-174.08-41.984-230.4-110.144C455.68 790.016 368.64 832 281.6 832 122.88 832 0 706.112 0 543.488c0-199.36 174.08-361.984 440.32-603.264L512-128l71.68 68.224C844.8 186.752 1024 349.376 1024 543.488 1024 706.048 901.12 832 742.4 832z"  horiz-adv-x="1024" />

    
    <glyph glyph-name="location_home" unicode="&#58945;" d="M523.007312 896a395.303294 395.303294 0 0 1-394.855321-394.855322c0-80.95494 24.254484-158.710081 69.75564-224.177988 2.23986-3.903756 4.543716-7.67952 7.295544-11.391288l288.237985-379.944254a39.485532 39.485532 0 0 1 29.566152-13.503156 40.765452 40.765452 0 0 1 30.846072 15.103056l286.894069 378.40835c2.87982 3.775764 5.247672 7.871508 6.591588 10.23936a392.679458 392.679458 0 0 1 70.523593 225.137928A395.303294 395.303294 0 0 1 523.007312 896z m0-600.15449a205.299169 205.299169 0 0 0-205.043185 205.10718A205.299169 205.299169 0 0 0 523.007312 705.931879a205.299169 205.299169 0 0 0 205.043185-205.043185 205.299169 205.299169 0 0 0-205.043185-205.10718z"  horiz-adv-x="1024" />

    
    <glyph glyph-name="edit" unicode="&#58946;" d="M848.853333-42.666667H175.146667A89.813333 89.813333 0 0 0 85.333333 47.146667V720.853333C85.333333 770.432 125.568 810.666667 175.146667 810.666667h404.224v-2.261334A33.109333 33.109333 0 0 0 590.592 810.666667a33.706667 33.706667 0 1 0 0-67.370667 33.024 33.024 0 0 0-11.221333 2.261333v-2.261333H197.632c-24.832 0-44.928-20.096-44.928-44.928v-628.736c0-24.832 20.096-44.928 44.928-44.928h628.736c24.832 0 44.928 20.096 44.928 44.928v359.253333h2.261333a33.408 33.408 0 0 0 31.402667 22.485334c14.634667 0 26.794667-9.429333 31.445333-22.442667H938.666667v-381.781333A89.813333 89.813333 0 0 0 848.853333-42.666667z m-347.306666 260.437334a6.826667 6.826667 0 0 0-4.906667-1.962667c-0.213333 0-0.341333 0.170667-0.554667 0.170667l-156.330666-41.728a27.562667 27.562667 0 0 0-25.898667 6.613333 26.112 26.112 0 0 0-6.826667 25.472l42.922667 154.197333a6.613333 6.613333 0 0 0 1.365333 2.304c0.298667 0.426667 0.170667 1.024 0.64 1.450667l417.834667 409.386667a67.712 67.712 0 0 0 47.786667 18.816c20.906667 0 41.813333-8.661333 57.258666-23.893334l39.466667-38.698666c15.530667-15.146667 24.362667-35.584 24.362667-56.021334 0-18.048-6.826667-34.645333-19.2-46.805333l-417.962667-409.301333z m-130.858667 18.858666l79.914667 21.418667L392.533333 315.008l-21.76-78.378667z m54.954667 119.808l67.882666-66.432 301.013334 294.826667-67.328 66.986667-301.568-295.381334z m450.986666 336.554667l-39.509333 38.698667c-7.466667 7.338667-19.968 8.234667-26.453333 1.877333l-40.96-40.106667 67.328-66.944 41.514666 40.618667a15.445333 15.445333 0 0 1 4.522667 11.136 20.864 20.864 0 0 1-6.485333 14.72z"  horiz-adv-x="1024" />

    
    <glyph glyph-name="location_line" unicode="&#58947;" d="M480-30.912C364.864 83.392 133.312 343.68 133.312 491.264c0 190.464 149.056 334.08 346.688 334.08 197.632 0 346.688-143.616 346.688-334.08 0-147.456-231.552-407.808-346.688-522.176zM480 896C246.72 896 64 718.208 64 491.264c0-221.44 376.32-581.568 392.32-596.8L480-128l23.68 22.4C519.68-90.24 896 269.952 896 491.328 896 718.208 713.28 896 480 896z m0-522.816c-57.344 0-104 47.552-104 105.984 0 58.368 46.72 105.92 104 105.92 57.344 0 104-47.552 104-105.92 0-58.432-46.72-105.984-104-105.984z m0 282.496c-95.552 0-173.312-79.168-173.312-176.512 0-97.408 77.76-176.64 173.312-176.64s173.312 79.232 173.312 176.64c0 97.28-77.76 176.512-173.312 176.512z"  horiz-adv-x="1024" />

    
    <glyph glyph-name="location_map" unicode="&#58948;" d="M523.008 895.957333c-217.770667 0-394.922667-177.152-394.922667-394.88 0-80.896 24.32-158.677333 69.76-224.128 2.304-3.925333 4.608-7.722667 7.296-11.434666l288.256-379.946667c7.850667-8.704 18.346667-13.525333 29.610667-13.525333 11.093333 0 21.717333 4.864 30.848 15.104l286.933333 378.453333a88.746667 88.746667 0 0 1 6.570667 10.24 392.704 392.704 0 0 1 70.570667 225.194667c0 217.770667-177.194667 394.922667-394.922667 394.922666z m0-600.106666A205.312 205.312 0 0 0 317.866667 500.906667a205.269333 205.269333 0 0 0 205.098666 205.056 205.312 205.312 0 0 0 205.056-205.056 205.312 205.312 0 0 0-205.056-205.056z"  horiz-adv-x="1024" />

    
    <glyph glyph-name="map" unicode="&#58949;" d="M505.813333 661.077333c-55.893333 0-102.4-44.288-102.4-100.778666 0-54.954667 44.970667-100.736 102.4-100.736 55.850667 0 102.4 44.288 102.4 100.736 0 56.490667-45.013333 100.778667-102.4 100.778666z m0-485.461333S263.765333 441.258667 263.765333 572.586667C263.765333 703.829333 372.352 810.666667 505.813333 810.666667c133.418667 0 242.005333-106.837333 242.005334-238.122667 0-131.285333-242.005333-396.928-242.005334-396.928z m288.554667 105.344l83.797333 29.013333v-210.688s-125.696-50.346667-218.752-76.330666L333.568 113.066667l-186.154667-71.722667v209.109333l80.64 21.376a804.736 804.736 0 0 0-3.072 61.056L85.333333 300.842667V-42.666667l46.506667 15.274667 201.728 74.794667L659.413333-42.666667 938.666667 47.36v343.509333l-139.648-38.144c-1.536-15.274667-1.536-47.36-4.650667-71.765333z"  horiz-adv-x="1024" />

    
    <glyph glyph-name="sex_male" unicode="&#58950;" d="M610.752 896v-94.976h197.184l-193.28-210.112C465.92 695.36 239.36 682.048 104.576 535.488c-146.56-159.424-136.32-410.816 21.76-558.912 157.888-148.16 403.84-137.152 550.656 22.4 134.72 146.496 145.728 361.856 12.736 521.472l203.136 221.056v-225.408h94.08V896h-376.32M604.8 66.56a286.72 286.72 0 0 0-407.488-15.296 293.632 293.632 0 0 0-14.976 411.648 286.72 286.72 0 0 0 407.488 15.168c116.48-109.184 123.136-293.824 14.976-411.52"  horiz-adv-x="1024" />

    
    <glyph glyph-name="sex_famale" unicode="&#58951;" d="M602.048 177.92a296.064 296.064 0 0 0-295.68 295.68 296.064 296.064 0 0 0 295.68 295.808A296 296 0 0 0 897.792 473.6a296.064 296.064 0 0 0-295.68-295.744zM180.16 473.6c0-83.136 24.256-160.768 65.92-226.176l-66.752-66.752-60.8 60.864a63.232 63.232 0 0 1-89.472 0l0.256 0.256a63.232 63.232 0 0 1 0-89.472l60.8-60.8-70.784-70.848a63.232 63.232 0 0 1 0-89.408L19.2-68.48a63.232 63.232 0 0 1 89.408 0l70.784 70.784 55.04-55.04a63.232 63.232 0 0 1 89.408 0l-0.192-0.192a63.232 63.232 0 0 1 0 89.408l-55.04 55.04 60.672 60.672a420.032 420.032 0 0 1 272.832-100.48A422.272 422.272 0 0 1 1024 473.728 422.4 422.4 0 0 1 602.048 895.552 422.4 422.4 0 0 1 180.16 473.6z"  horiz-adv-x="1024" />

    
    <glyph glyph-name="time_line" unicode="&#58952;" d="M512.064-127.744c-282.24 0-511.68 229.568-511.68 511.616C0.384 665.984 229.888 895.488 512.064 895.488c282.112 0 511.552-229.504 511.552-511.616 0-282.048-229.44-511.616-511.552-511.616m0 935.424c-233.792 0-424-190.08-424-423.808A424.448 424.448 0 0 1 512-40a424.384 424.384 0 0 1 423.936 423.872A424.32 424.32 0 0 1 512 807.68M736.32 340.032H512.064a43.904 43.904 0 0 0-43.84 43.84v272a43.84 43.84 0 0 0 87.68 0l-0.064-228.224h180.48a43.712 43.712 0 1 0 0-87.68"  horiz-adv-x="1024" />

    
    <glyph glyph-name="invisible1" unicode="&#58953;" d="M512 640C276.309333 640 85.333333 442.965333 85.333333 364.202667c0-78.805333 191.018667-275.797333 426.666667-275.797334 235.605333 0 426.666667 196.992 426.666667 275.797334C938.666667 442.965333 747.605333 640 512 640z m0-472.746667c-107.178667 0-193.962667 88.149333-193.962667 196.949334S404.821333 561.152 512 561.152c107.178667 0 193.962667-88.192 193.962667-196.949333 0-108.8-86.784-196.992-193.962667-196.992z m0 333.653334c-74.410667 0-134.656-61.184-134.656-136.704 0-75.605333 60.330667-136.746667 134.698667-136.746667s134.613333 61.141333 134.613333 136.746667c0 75.52-60.330667 136.746667-134.698667 136.746666z"  horiz-adv-x="1024" />

    
    <glyph glyph-name="line_small1" unicode="&#58954;" d="M512-25.6a409.6 409.6 0 1 0 0 819.2 409.6 409.6 0 0 0 0-819.2zM512 725.333333a341.333333 341.333333 0 1 1 0-682.666666 341.333333 341.333333 0 0 1 0 682.666666z m-39.808-471.808c-13.653333-12.757333-34.944-12.757333-48.64 0l-87.509333 115.712a31.573333 31.573333 0 0 0 0 46.250667c13.696 12.8 34.986667 12.8 48.64 0l67.157333-88.746667 190.634667 181.248c13.696 12.8 34.986667 12.8 48.64 0a31.573333 31.573333 0 0 0 0-46.250666l-218.88-208.213334z"  horiz-adv-x="1024" />

    
    <glyph glyph-name="notification" unicode="&#58955;" d="M512 384m-512 0a512 512 0 1 1 1024 0 512 512 0 1 1-1024 0ZM755.2 202.666667c-2.133333 49.066667-25.6 93.866667-61.866667 121.6v134.4c0 76.8-53.333333 142.933333-123.733333 157.866666V618.666667c0 36.266667-27.733333 64-61.866667 64-34.133333 0-61.866667-29.866667-61.866666-64v-2.133334c-70.4-14.933333-123.733333-81.066667-123.733334-157.866666v-134.4c-36.266667-27.733333-59.733333-72.533333-61.866666-121.6h494.933333zM492.8 85.333333h14.933333c40.533333 0 74.666667 32 78.933334 72.533334h-162.133334c4.266667-40.533333 38.4-72.533333 78.933334-72.533334h-10.666667z"  horiz-adv-x="1024" />

    
    <glyph glyph-name="delate_preview" unicode="&#58956;" d="M512 384m-512 0a512 512 0 1 1 1024 0 512 512 0 1 1-1024 0ZM516.266667 640c55.466667 0 102.4-40.533333 102.4-93.866667h121.6c14.933333 0 25.6-10.666667 25.6-25.6 0-12.8-12.8-25.6-25.6-25.6h-25.6v-275.2c0-51.2-38.4-93.866667-83.2-93.866666H394.666667c-46.933333 0-83.2 42.666667-83.2 93.866666v277.333334h-29.866667c-14.933333 0-25.6 10.666667-25.6 25.6 0 12.8 12.8 25.6 25.6 25.6h130.133333c2.133333 51.2 49.066667 91.733333 104.533334 91.733333z m-53.333334-93.866667h108.8c-2.133333 25.6-25.6 46.933333-53.333333 46.933334s-53.333333-19.2-55.466667-46.933334z m-68.266666-371.2h236.8c17.066667 0 34.133333 19.2 34.133333 46.933334V497.066667H360.533333v-275.2c0-27.733333 19.2-46.933333 34.133334-46.933334z m42.666666 64c-10.666667 0-19.2 10.666667-19.2 23.466667v138.666667c0 12.8 8.533333 23.466667 19.2 23.466666s19.2-10.666667 19.2-23.466666v-138.666667c2.133333-12.8-8.533333-23.466667-19.2-23.466667z m72.533334 0c-10.666667 0-19.2 10.666667-19.2 23.466667v138.666667c0 12.8 8.533333 23.466667 19.2 23.466666s19.2-10.666667 19.2-23.466666v-138.666667c0-12.8-8.533333-23.466667-19.2-23.466667z m74.666666 0c-10.666667 0-19.2 10.666667-19.2 23.466667v138.666667c0 12.8 8.533333 23.466667 19.2 23.466666s19.2-10.666667 19.2-23.466666v-138.666667c0-12.8-8.533333-23.466667-19.2-23.466667z"  horiz-adv-x="1024" />

    
    <glyph glyph-name="close_ad" unicode="&#58957;" d="M548.565333 384l126.784 126.784c9.749333 9.749333 9.749333 26.816 0 36.565333-9.749333 9.749333-26.816 9.749333-36.565333 0L512 420.565333l-126.784 126.784c-9.749333 9.749333-26.816 9.749333-36.565333 0-9.749333-9.749333-9.749333-26.816 0-36.565333L475.434667 384l-126.784-126.784c-9.749333-9.749333-9.749333-26.816 0-36.565333 9.749333-9.749333 26.816-9.749333 36.565333 0L512 347.434667l126.784-126.784c9.749333-9.749333 26.816-9.749333 36.565333 0 9.749333 9.749333 9.749333 26.816 0 36.565333L548.565333 384zM512-42.666667C276.352-42.666667 85.333333 148.352 85.333333 384S276.352 810.666667 512 810.666667s426.666667-191.018667 426.666667-426.666667-191.018667-426.666667-426.666667-426.666667z m0 42.666667c212.074667 0 384 171.925333 384 384S724.074667 768 512 768 128 596.074667 128 384s171.925333-384 384-384z"  horiz-adv-x="1024" />

    
    <glyph glyph-name="video" unicode="&#58958;" d="M908.16 474.176H364.010667l533.056 168.704c41.557333 12.885333 64.384 57.386667 51.498666 98.986667l-31.018666 98.986666c-12.864 41.6-57.344 64.426667-98.88 51.562667L97.749333 664.533333c-41.536-12.885333-64.362667-57.386667-51.498666-98.986666l31.018666-98.986667c2.325333-7.573333 5.866667-14.698667 10.538667-21.098667A85.653333 85.653333 0 0 1 66.133333 388.650667v-430.549334A86.186667 86.186667 0 0 1 152.170667-128H908.16a86.186667 86.186667 0 0 1 86.016 86.101333V388.650667c0 47.445333-38.613333 85.525333-86.016 85.525333zM849.685333 828.565333c2.346667-1.770667 4.693333-4.117333 5.845334-7.04l31.018666-98.986666a13.610667 13.610667 0 0 0-8.789333-16.981334l-48.554667-15.232 20.48 138.24zM663.573333 775.253333l82.517334 26.368-21.653334-144.106666-82.496-26.368 21.632 144.106666z m-186.666666-59.157333l82.517333 26.346667-21.653333-144.085334-82.496-26.368 21.653333 144.106667zM165.056 480l-8.192-2.346667a13.589333 13.589333 0 0 0-16.96 8.789334l-31.594667 98.410666a13.610667 13.610667 0 0 0 8.768 17.002667l69.056 21.653333-21.077333-143.509333z m103.573333 32.810667l21.653334 144.106666 82.496 26.346667-21.632-144.085333-82.517334-26.368z m362.794667-367.274667l-138.666667-119.509333c-8.789333-7.616-20.48-11.114667-32.213333-11.114667a61.226667 61.226667 0 0 0-17.536 2.922667c-16.981333 5.866667-28.096 19.925333-28.096 35.733333V292.586667c0 15.808 11.114667 29.866667 28.096 35.733333 16.96 5.845333 36.266667 2.922667 49.152-8.213333l138.666667-119.488c18.133333-15.232 18.133333-39.829333 0.597333-55.061334z"  horiz-adv-x="1024" />

    
    <glyph glyph-name="like_large_unselecte" unicode="&#58959;" d="M696.32 768c-69.632 0-139.264-33.5616-184.32-88.1408C466.944 734.464 397.312 768 327.68 768 200.704 768 102.4 667.2896 102.4 537.1904c0-159.488 139.264-289.5872 352.256-482.6368L512 0l57.344 54.5536C778.24 251.8016 921.6 381.9008 921.6 537.1904 921.6 667.2896 823.296 768 696.32 768z"  horiz-adv-x="1024" />

    
    <glyph glyph-name="video_play_upload" unicode="&#58960;" d="M512 384m-512 0a512 512 0 1 1 1024 0 512 512 0 1 1-1024 0ZM724.48 417.28l-281.6 166.4c-23.04 12.8-58.88 0-58.88-33.28v-332.8c0-30.72 33.28-48.64 58.88-33.28l281.6 166.4c23.04 15.36 23.04 51.2 0 66.56z"  horiz-adv-x="1024" />

    
    <glyph glyph-name="share" unicode="&#58961;" d="M603.008 716.8L921.6 397.696 603.008 78.5664v182.3488S286.9248 296.064 102.4 32.9728c0 0 58.1376 501.4784 500.608 501.4784V716.8z"  horiz-adv-x="1024" />

    
    <glyph glyph-name="comment" unicode="&#58962;" d="M819.456 793.6c56.448 0 102.4-50.56 102.144-112.64v-451.2c0-62.08-45.952-112.64-102.4-112.64h-201.344L512-25.6l-106.24 142.72H204.8c-56.448 0-102.4 50.56-102.4 112.64V680.96C102.4 743.04 148.352 793.6 204.8 793.6h614.656zM281.6 384a76.8 76.8 0 1 1 0 153.6 76.8 76.8 0 0 1 0-153.6z m230.4 0a76.8 76.8 0 1 1 0 153.6 76.8 76.8 0 0 1 0-153.6z m230.4 0a76.8 76.8 0 1 1 0 153.6 76.8 76.8 0 0 1 0-153.6z"  horiz-adv-x="1024" />

    
    <glyph glyph-name="activity" unicode="&#58963;" d="M430.08 35.84C271.36 71.68 153.6 215.04 153.6 384c0 197.12 161.28 358.4 358.4 358.4s358.4-161.28 358.4-358.4c0-168.96-117.76-312.32-276.48-348.16L512-128l-81.92 163.84zM663.04 558.08l-2.56-2.56c-25.6-23.04-40.96-38.4-133.12-7.68-25.6 7.68-51.2 12.8-74.24 10.24-20.48 0-40.96-5.12-58.88-10.24-33.28-10.24-51.2-28.16-53.76-28.16 0 0-2.56 0-2.56-2.56-5.12-5.12-7.68-10.24-5.12-15.36l130.56-291.84c2.56-5.12 10.24-7.68 15.36-5.12 5.12 2.56 7.68 10.24 5.12 15.36l-53.76 120.32v2.56c15.36 28.16 33.28 61.44 120.32 53.76 15.36-2.56 30.72 0 46.08 7.68h2.56c12.8 7.68 25.6 15.36 38.4 28.16 17.92 20.48 35.84 48.64 43.52 76.8l7.68 30.72c0 7.68 0 17.92-7.68 23.04 0 0-7.68 2.56-17.92-5.12z"  horiz-adv-x="1024" />

    
    <glyph glyph-name="notice" unicode="&#58965;" d="M512 384m-512 0a512 512 0 1 1 1024 0 512 512 0 1 1-1024 0Z"  horiz-adv-x="1024" />

    
    <glyph glyph-name="search" unicode="&#58969;" d="M957.632-126.848a84.416 84.416 0 0 0-61.792 19.808l-228.48 196.928c-9.376 7.68-14.272 15.776-18.944 19.616-56.288-39.68-122.56-62.88-194.4-73.952C228.96 14.4 24.16 187.936 1.792 425.568-16.352 663.84 148.416 872.064 377.504 893.568c110.4 10.464 216.768-26.624 304.992-99.744 83.968-73.504 136.416-175.584 147.264-290.24 10.016-106.144-18.56-211.648-75.424-289.856l13.856-11.52 228.48-196.928c32.576-26.88 36.832-73.536 5.728-106.56-11.52-13.856-27.712-24.096-44.768-25.6zM368.576 807.04c-173.28-24.928-295.2-186.24-277.504-372.96 17.92-190.944 176.672-330.336 359.36-313.088 182.624 17.28 312.416 183.712 294.528 374.688-8.768 93.344-50.752 175.2-120.416 232.736C558.88 786.368 470.4 816.64 385.6 808.544l-17.056-1.504z"  horiz-adv-x="1024" />

    
    <glyph glyph-name="select" unicode="&#58968;" d="M885.152 588.576c36.32 50.176-29.536 118.048-86.88 60.96L393.536 246.72c-56.576 57.344-113.312 114.592-169.792 172.032-22.976 23.36-56.224 29.44-80.416 4.32-22.4-23.264-18.336-54.688 3.616-76.544l199.584-198.912c36.672-36.576 60.608-36.928 97.44-0.256 147.232 146.816 293.952 294.304 441.184 441.184z"  horiz-adv-x="1024" />

    
    <glyph glyph-name="close_large" unicode="&#58973;" d="M566.848 384l190.176 190.176c14.624 14.624 14.624 40.224 0 54.848-14.624 14.624-40.224 14.624-54.848 0L512 438.848l-190.176 190.176c-14.624 14.624-40.224 14.624-54.848 0-14.624-14.624-14.624-40.224 0-54.848L457.152 384l-190.176-190.176c-14.624-14.624-14.624-40.224 0-54.848 14.624-14.624 40.224-14.624 54.848 0L512 329.152l190.176-190.176c14.624-14.624 40.224-14.624 54.848 0 14.624 14.624 14.624 40.224 0 54.848L566.848 384z"  horiz-adv-x="1024" />

    
    <glyph glyph-name="more" unicode="&#58974;" d="M256 320a64 64 0 1 0 0 128 64 64 0 0 0 0-128z m256 0a64 64 0 1 0 0 128 64 64 0 0 0 0-128z m256 0a64 64 0 1 0 0 128 64 64 0 0 0 0-128z"  horiz-adv-x="1024" />

    
    <glyph glyph-name="inputbar" unicode="&#58975;" d="M267.168256 896m51.2 0l0 0q51.2 0 51.2-51.2l0-921.6q0-51.2-51.2-51.2l0 0q-51.2 0-51.2 51.2l0 921.6q0 51.2 51.2 51.2Z"  horiz-adv-x="1024" />

    
    <glyph glyph-name="arrwo_left" unicode="&#58976;" d="M294.784 404.672c-0.512-1.024-1.376-1.888-1.76-2.88-8.736-18.24-5.856-40.672 9.6-55.264l352.64-333.568a47.904 47.904 0 1 1 65.92 69.632l-316.48 299.36 315.2 303.712a47.904 47.904 0 0 1-66.368 69.024L304.128 417.888c-0.64-0.64-0.864-1.6-1.6-2.24-0.512-0.512-1.024-0.864-1.632-1.376-2.88-2.88-4.256-6.368-6.112-9.6z"  horiz-adv-x="1024" />

    
    <glyph glyph-name="setting" unicode="&#58977;" d="M888.64 455.36c4.256-23.712 6.72-47.744 7.296-71.84a466.432 466.432 0 0 0-7.328-71.872v-5.472a62.176 62.176 0 0 0-58.88-59.808h-2.56a68.384 68.384 0 0 1-65.088-71.296c0.416-9.6 2.4-19.04 5.856-27.968a75.52 75.52 0 0 0-20.64-85.024l-4.224-2.944-94.528-54.848a82.816 82.816 0 0 0-30.176-4.192 69.472 69.472 0 0 0-56.48 27.776 111.712 111.712 0 0 1-51.744 35.296c-14.272 0-41.152-22.112-52.288-36.576l-2.016-2.176a76.064 76.064 0 0 0-54.848-22.144 51.744 51.744 0 0 0-31.648 7.68l-85.376 51.2a74.048 74.048 0 0 0-23.584 88.672c3.456 8.96 5.44 18.4 5.856 28a68.384 68.384 0 0 1-65.088 71.296h-6.048c-13.344 0-46.08 5.472-58.336 56.672l-1.44 8.768A466.432 466.432 0 0 0 128 386.432c0.608 24 3.04 47.872 7.328 71.488l0.896 6.208c2.56 31.04 27.776 55.328 58.88 56.704h1.632a67.84 67.84 0 0 1 65.088 68.544A89.408 89.408 0 0 1 256 617.344a75.52 75.52 0 0 0 21.376 85.952l4.032 2.912 97.44 57.408a80.992 80.992 0 0 0 81.568-18.24l1.984-2.24c13.12-16.32 31.232-27.968 51.584-33.088a112.992 112.992 0 0 1 52.832 34.016 66.752 66.752 0 0 0 53.376 23.584 66.56 66.56 0 0 0 31.104-5.856l93.792-53.92a73.152 73.152 0 0 0 22.848-87.776c-3.776-8.896-6.08-18.336-6.752-27.968a68.384 68.384 0 0 1 65.088-71.296h2.56c13.344 0 46.08-5.504 58.336-56.704l1.44-8.768z m-54.88-134.56h0.736c3.776 20.768 5.984 41.792 6.592 62.88a418.528 418.528 0 0 1-7.328 62.176v5.664a28.704 28.704 0 0 1-6.4 14.272h-1.088a123.232 123.232 0 0 0-119.936 126.144c0.448 16.736 3.84 33.28 10.048 48.832a21.216 21.216 0 0 1-3.296 21.568l-86.112 50.464h-6.784a18.272 18.272 0 0 1-9.664-2.56l-2.208-2.752c-11.872-11.872-54.112-52.8-93.6-52.8-39.52 0-79.36 34.528-94.368 52.8a23.04 23.04 0 0 1-13.888 4.768 27.776 27.776 0 0 1-7.296 0L311.936 660.48a20.48 20.48 0 0 1-4.384-22.304c6.208-15.552 9.6-32.096 10.048-48.832a123.232 123.232 0 0 0-119.936-123.424h-2.56a12.256 12.256 0 0 1-4.576-9.12c-1.088-1.824-1.088-4.384-1.088-7.488a417.984 417.984 0 0 1-6.592-62.912c1.184-20.896 3.936-41.664 8.224-62.176v-5.856a28.704 28.704 0 0 1 6.4-14.24h3.68a123.232 123.232 0 0 0 119.744-126.528 142.432 142.432 0 0 0-10.048-48.832 20.48 20.48 0 0 1 2.912-19.744l83.744-49.92h3.648a23.04 23.04 0 0 1 13.92 4.768c13.696 16.256 52.096 54.848 94.336 54.848s86.848-45.888 95.616-57.216c3.008-3.904 7.712-6.08 12.608-5.856 3.36-0.416 6.72-0.416 10.08 0l83.904 48.448a20.48 20.48 0 0 1 4.224 22.304 142.08 142.08 0 0 0-10.048 48.832 123.232 123.232 0 0 0 119.936 126.144h2.56a18.272 18.272 0 0 1 4.384 11.52c1.088 1.824 1.088 4.576 1.088 7.872zM512 575.68a192 192 0 1 0 0-384 192 192 0 0 0 0 384z m0-329.12a137.12 137.12 0 1 1 0 274.24 137.12 137.12 0 0 1 0-274.24z"  horiz-adv-x="1024" />

    
    <glyph glyph-name="number_entry" unicode="&#58978;" d="M795.569231 422.754462c44.347077-57.501538 70.892308-128.708923 70.892307-206.139077C866.461538 26.387692 707.741538-128 512-128S157.538462 26.308923 157.538462 216.615385c0 77.430154 26.545231 148.637538 70.892307 206.139077V620.307692C228.430769 772.568615 355.406769 896 512 896s283.569231-123.431385 283.569231-275.692308v-197.55323zM299.323077 610.461538v-128.472615a359.030154 359.030154 0 0 0 212.676923 69.316923c79.872 0 153.363692-25.993846 212.676923-69.316923v128.393846C724.676923 724.676923 629.366154 817.230769 512 817.230769S299.323077 724.676923 299.323077 610.461538zM512 265.846154c-21.740308 0-39.384615-11.815385-39.384615-26.230154v-105.078154c0-14.493538 17.644308-26.230154 39.384615-26.230154s39.384615 11.815385 39.384615 26.230154V239.616C551.384615 254.030769 533.740308 265.846154 512 265.846154z"  horiz-adv-x="1024" />

    
    <glyph glyph-name="round" unicode="&#58980;" d="M512-49.230769a433.230769 433.230769 0 1 0 0 866.461538 433.230769 433.230769 0 0 0 0-866.461538z m0 742.715077a309.484308 309.484308 0 1 1 0-618.968616 309.484308 309.484308 0 0 1 0 618.968616z m0-464.187077a154.702769 154.702769 0 1 0 0 309.405538 154.702769 154.702769 0 0 0 0-309.405538z"  horiz-adv-x="1024" />

    
    <glyph glyph-name="people_number" unicode="&#58979;" d="M275.692308 699.076923m-196.923077 0a196.923077 196.923077 0 1 1 393.846154 0 196.923077 196.923077 0 1 1-393.846154 0ZM708.923077 502.153846m-157.538462 0a157.538462 157.538462 0 1 1 315.076923 0 157.538462 157.538462 0 1 1-315.076923 0ZM275.692308 502.153846A196.923077 196.923077 0 0 0 472.615385 305.230769v-236.307692a196.923077 196.923077 0 1 0-393.846154 0v236.307692A196.923077 196.923077 0 0 0 275.692308 502.153846zM551.384615 344.615385m157.538462 0l0 0q157.538462 0 157.538461-157.538462l0-157.538461q0-157.538462-157.538461-157.538462l0 0q-157.538462 0-157.538462 157.538462l0 157.538461q0 157.538462 157.538462 157.538462Z"  horiz-adv-x="1024" />

    
    <glyph glyph-name="icon_sensetouch_" unicode="&#58881;" d="M512 32c-194.4 0-352 157.6-352 352s157.6 352 352 352 352-157.6 352-352-157.6-352-352-352z m0 15.312c185.952 0 336.688 150.736 336.688 336.688S697.952 720.688 512 720.688 175.312 569.952 175.312 384 326.048 47.312 512 47.312z m95.888 581.552l-63.824-215.04 107.792-42.864-244.896-236.768 71.68 208.992-119.68 38.336 248.928 247.36z m-39.776-66.208L397.2 389.712l108.064-34.56-54.96-155.296 163.024 163.568-97.44 37.232 52.224 162z"  horiz-adv-x="1024" />

    
    <glyph glyph-name="icon_sensetouch_1" unicode="&#58882;" d="M800 446.88a181.28 181.28 0 0 1-13.872 12.016v87.232a48 48 0 0 1-48 48H237.872a48 48 0 0 1-48-48v-292.256a48 48 0 0 1 48-48h295.232c3.76-4.832 7.776-9.456 12-13.872H240a64 64 0 0 0-64 64V544a64 64 0 0 0 64 64h496a64 64 0 0 0 64-64v-97.12zM680 144C587.216 144 512 219.216 512 312S587.216 480 680 480 848 404.784 848 312 772.784 144 680 144z m0 14a154 154 0 1 1 0 308 154 154 0 0 1 0-308zM240 544h12.08v-63.936h87.712V544h12.064v-144h-12.064v68.96h-87.712V400H240v144z m140.768 0h50.288c21.984 0 38.608-6.656 49.696-20.16 10.096-12.112 15.248-29.44 15.248-51.84 0-21.984-5.744-39.328-17.024-52.032-11.888-13.312-28.704-19.968-50.496-19.968h-47.712v144z m12.08-10.88v-122.24h33.856c18.816 0 33.264 5.456 43.168 16.352 9.504 10.48 14.24 25.408 14.24 44.768 0 20.16-4.16 35.088-12.464 44.96-9.12 10.912-23.36 16.16-42.368 16.16h-36.432zM624 384l144-72.72L624 224V384z m14.4-23.408v-110.88l101.408 61.568-101.408 49.312z"  horiz-adv-x="1024" />

    
    <glyph glyph-name="icon_sensetouch_2" unicode="&#58892;" d="M640 178.288V192h37.808v0.048c80.192 1.92 153.392 70 153.392 150.4 0 72.16-54.688 135.104-123.808 148.592-10.16 93.936-94.496 167.248-190.944 167.248-102.864 0-186.256-83.392-186.256-186.272 0-6.56 0.336-13.072 1.008-19.472a135.184 135.184 0 0 1-138.144-135.152c0-73.92 63.408-124.384 137.12-125.392H384v-13.712h-70.864v0.16a144 144 0 0 0 0 287.68v0.16c0 113.6 92.112 205.712 205.728 205.712 101.056 0 185.104-72.88 202.432-168.96C793.936 485.968 848 420.736 848 342.88c0-90.896-73.68-164.576-164.576-164.576H640zM272 112h496v-16H272v16z m357.28 224l-133.856-169.52 22.832-15.808-70.256-12.128 136.432 170.992-24.96 14.992L629.248 336z"  horiz-adv-x="1024" />

    
    <glyph glyph-name="icon_sensetouch_3" unicode="&#58893;" d="M319.68 608h370.112a96 96 0 0 0 92.96-72.016l65.824-255.216a85.616 85.616 0 0 0-82.896-107.008H719.04a96 96 0 0 0-88.544 58.912l-24.72 59.04a56.432 56.432 0 0 1-52.048 34.624h-78.128c-24.32 0-46-15.328-54.128-38.24l-17.856-50.4a96 96 0 0 0-90.48-63.936h-44.56a92.656 92.656 0 0 0-90.96 110.336l47.824 246.208A96 96 0 0 0 319.68 608z m3.856-18.608a80 80 0 0 1-78.592-65.04L198.976 282.88a75.856 75.856 0 0 1 74.528-90.048h34.416a80 80 0 0 1 75.728 54.192l16.224 47.584a80 80 0 0 0 75.728 54.192h77.52a80 80 0 0 0 74.16-49.984l22.656-56a80 80 0 0 1 74.16-49.984h35.488a69.456 69.456 0 0 1 67.312 86.64l-63.712 249.696a80 80 0 0 1-77.52 60.224H323.536zM358.912 352a72 72 0 1 0 0 144 72 72 0 0 0 0-144z m0 16a56 56 0 1 1 0 112 56 56 0 0 1 0-112z m304-16a72 72 0 1 0 0 144 72 72 0 0 0 0-144z m0 16a56 56 0 1 1 0 112 56 56 0 0 1 0-112z m206.496-86c4.912 0 9.088-3.552 9.856-8.4 3.536-22.24 1.76-42.128-5.312-59.664-7.2-17.84-19.968-33.36-38.256-46.544a8 8 0 0 0-10.624 1.152 6.016 6.016 0 0 0 1.024 8.944c14.784 10.4 25.76 24.448 32.896 42.128 7.072 17.504 8.48 35.712 4.208 54.608a6.384 6.384 0 0 0 6.208 7.776z m-714.656 0a5.968 5.968 0 0 0 5.872-7.056 97.392 97.392 0 0 1 5.424-55.328 88.704 88.704 0 0 1 34.4-41.92 5.792 5.792 0 0 0 0.688-9.152 9.984 9.984 0 0 0-12.528-0.608c-17.92 13.072-30.4 28.4-37.52 46-7.184 17.76-8.912 37.968-5.168 60.576a8.96 8.96 0 0 0 8.832 7.488z"  horiz-adv-x="1024" />

    
    <glyph glyph-name="icon_sensetouch_4" unicode="&#58896;" d="M192 496h640a32 32 0 0 0 32-32v-304a32 32 0 0 0-32-32H192a32 32 0 0 0-32 32V464a32 32 0 0 0 32 32z m0-16a16 16 0 0 1-16-16v-304a16 16 0 0 1 16-16h640a16 16 0 0 1 16 16V464a16 16 0 0 1-16 16H192z m40 64h560a8 8 0 1 0 0-16h-560a8 8 0 1 0 0 16z m48 48h464a8 8 0 1 0 0-16h-464a8 8 0 1 0 0 16z m48 48h384a8 8 0 1 0 0-16h-384a8 8 0 1 0 0 16zM304 408v-176a8 8 0 1 0-16 0v176a8 8 0 1 0 16 0z m80 0v-176a8 8 0 1 0-16 0v176a8 8 0 1 0 16 0zM656 224a96 96 0 1 0 0 192 96 96 0 0 0 0-192z m0 16a80 80 0 1 1 0 160 80 80 0 0 1 0-160z"  horiz-adv-x="1024" />

    
    <glyph glyph-name="icon_sensetouch_5" unicode="&#58899;" d="M679.84 419.136a177.152 177.152 0 0 1-14.64 0.56v78.176a51.232 51.232 0 0 1-63.568 24.176l-5.552-2.112v-89.44c-9.712 0.592-13.056 0.8-14.672 1.008v97.312a53.856 53.856 0 0 1-62.976 25.632l-6.144-1.888v-106.8l-14.624 0.192v166.4c0 24.448-26.72 43.552-48.288 43.552-25.248 0-50.368-19.312-50.368-43.552 0-16.16-0.64-100.512-1.92-253.04 0.048-9.168-63.712 108.768-126.528 46.144-19.408-19.36-19.904-53.936-7.632-67.312L467.04 135.408c31.84-33.36 112.224-22.464 173.44-22.464 61.2 0 118.368 71.68 118.464 125.248v2.864a19.44 19.44 0 0 0 0 2.88l1.056 197.12a0.48 0.48 0 0 1-0.016 0.16l0.016 0.704-4 10.032a55.04 55.04 0 0 1-76.16 28.64v-61.44zM532.896 96a127.264 127.264 0 0 0-69.024 20.832 70.256 70.256 0 0 0-14.992 11.616l-187.68 188.224a72.928 72.928 0 0 0-18.736 70.144 72.416 72.416 0 0 0 51.008 51.392 71.888 71.888 0 0 0 69.744-18.736l19.648-19.776V608.896C384.528 644.224 413.488 672 448.64 672s64.096-27.776 65.776-63.104v-41.36a65.84 65.84 0 0 0 80.864-34.88 65.04 65.04 0 0 0 50.816 1.04 65.6 65.6 0 0 0 36.192-35.888 65.36 65.36 0 0 0 62.064-5.328 66.208 66.208 0 0 0 29.76-55.04v-199.104C774.032 159.696 710.64 96 632.48 96h-99.616z"  horiz-adv-x="1024" />

    
    </font>
</defs>
</svg>
