<?xml version="1.0" encoding="UTF-8"?>
<svg width="427px" height="135px" viewBox="0 0 427 135" version="1.1" xmlns="http://www.w3.org/2000/svg" xmlns:xlink="http://www.w3.org/1999/xlink">
    <!-- Generator: Sketch 52.4 (67378) - http://www.bohemiancoding.com/sketch -->
    <title>icon_xun</title>
    <desc>Created with Sketch.</desc>
    <g id="Page-1" stroke="none" stroke-width="1" fill="none" fill-rule="evenodd">
        <g id="icon_xun">
            <g id="分组-64" transform="translate(230.000000, 0.000000)" fill="#0071FF">
                <path d="M9.504,4.864 L12.936,4.864 L16.968,10.912 L21,4.864 L24.432,4.864 L18.648,13.144 L24.816,22 L21.384,22 L16.968,15.376 L12.552,22 L9.12,22 L15.24,13.144 L9.504,4.864 Z M26.376,9.592 L29.112,9.592 L29.112,17.152 C29.112,18.16 29.304,18.88 29.736,19.36 C30.168,19.816 30.84,20.056 31.8,20.056 C32.4,20.056 32.976,19.792 33.528,19.288 C34.08,18.76 34.488,18.064 34.728,17.176 L34.728,9.592 L37.464,9.592 L37.464,22 L34.728,22 L34.728,20.392 C33.672,21.688 32.376,22.336 30.84,22.336 C27.864,22.336 26.376,20.656 26.376,17.32 L26.376,9.592 Z M46.752,9.256 C49.848,9.256 51.408,10.936 51.408,14.344 L51.408,22 L48.672,22 L48.672,14.584 C48.672,12.544 47.736,11.536 45.864,11.536 C45.192,11.536 44.592,11.776 44.088,12.256 C43.512,12.784 43.176,13.552 43.08,14.536 L43.08,22 L40.344,22 L40.344,9.592 L43.08,9.592 L43.08,11.032 C43.56,10.456 44.112,10 44.712,9.712 C45.336,9.4 46.008,9.256 46.752,9.256 Z" id="Xun"></path>
                <polygon id="矩形" transform="translate(32.976402, 5.461302) rotate(37.000000) translate(-32.976402, -5.461302) " points="31.9238417 3.48526354 33.9863821 1.93102789 34.0430085 7.38408553 31.9097955 8.99157681"></polygon>
                <polygon id="路径-copy-2" opacity="0.3" points="1.81171345e-12 0 7.968 0 7.968 2.232 2.496 2.232 2.496 24.2785656 0 24.2785656"></polygon>
                <polygon id="路径-copy-3" opacity="0.3" points="131.472 0 133.968 0 133.968 23.7863767 126 23.7863767 126 21.5543767 131.472 21.5543767"></polygon>
                <path d="M59.6,7 L61.072,7 L55.488,21.72 L54,21.72 L59.6,7 Z M67.608,8.672 C70.824,8.672 72.6,9.968 72.888,12.584 L70.416,12.584 C70.224,11.912 69.936,11.456 69.528,11.192 C69.096,10.904 68.424,10.76 67.56,10.76 C66.792,10.76 66.216,10.856 65.832,11.096 C65.376,11.336 65.16,11.72 65.16,12.2 C65.16,12.632 65.496,12.992 66.168,13.304 C66.6,13.496 67.416,13.736 68.664,14.048 C70.08,14.384 71.136,14.792 71.808,15.224 C72.792,15.848 73.296,16.712 73.296,17.816 C73.296,20.432 71.448,21.752 67.776,21.752 C64.368,21.752 62.544,20.288 62.256,17.408 L64.752,17.408 C64.896,18.248 65.208,18.848 65.64,19.184 C66.072,19.496 66.744,19.664 67.704,19.664 C69.672,19.664 70.68,19.088 70.68,17.984 C70.68,17.384 70.296,16.904 69.576,16.568 C69.192,16.376 68.352,16.136 67.08,15.848 C65.616,15.512 64.584,15.152 64.008,14.768 C63.048,14.168 62.568,13.328 62.568,12.272 C62.568,11.144 63.024,10.256 63.96,9.632 C64.896,8.984 66.12,8.672 67.608,8.672 Z M80.976,8.672 C82.56,8.672 83.832,9.032 84.792,9.752 C85.752,10.52 86.376,11.672 86.616,13.208 L84.096,13.208 C83.928,12.368 83.592,11.744 83.064,11.36 C82.536,10.952 81.84,10.76 80.976,10.76 C79.92,10.76 79.104,11.144 78.504,11.936 C77.88,12.704 77.592,13.808 77.592,15.2 C77.592,16.592 77.88,17.696 78.48,18.488 C79.032,19.256 79.848,19.664 80.952,19.664 C82.848,19.664 83.904,18.704 84.144,16.832 L86.664,16.832 C86.376,18.488 85.728,19.736 84.768,20.552 C83.808,21.344 82.512,21.752 80.928,21.752 C79.032,21.752 77.568,21.128 76.512,19.88 C75.48,18.68 74.976,17.144 74.976,15.224 C74.976,13.352 75.48,11.816 76.488,10.616 C77.568,9.32 79.056,8.672 80.976,8.672 Z M94.56,8.672 C96.432,8.672 97.944,9.296 99.072,10.544 C100.176,11.768 100.752,13.328 100.752,15.224 C100.752,17.096 100.2,18.656 99.096,19.856 C97.944,21.104 96.432,21.752 94.56,21.752 C92.688,21.752 91.176,21.104 90.024,19.856 C88.92,18.656 88.368,17.096 88.368,15.224 C88.368,13.328 88.92,11.768 90.048,10.544 C91.176,9.296 92.688,8.672 94.56,8.672 Z M94.56,10.76 C93.384,10.76 92.472,11.216 91.824,12.152 C91.248,12.944 90.984,13.976 90.984,15.224 C90.984,16.472 91.248,17.48 91.824,18.272 C92.472,19.184 93.384,19.664 94.56,19.664 C95.736,19.664 96.648,19.184 97.32,18.272 C97.896,17.456 98.184,16.448 98.184,15.224 C98.184,13.976 97.896,12.944 97.32,12.152 C96.648,11.216 95.736,10.76 94.56,10.76 Z M103.176,9.008 L105.72,9.008 L105.72,16.568 C105.72,17.624 105.936,18.392 106.392,18.872 C106.824,19.352 107.544,19.616 108.528,19.616 C109.2,19.616 109.8,19.328 110.376,18.8 C110.952,18.248 111.36,17.504 111.576,16.592 L111.576,9.008 L114.12,9.008 L114.12,21.416 L111.576,21.416 L111.576,19.736 C110.52,21.08 109.224,21.752 107.664,21.752 C104.664,21.752 103.176,20.072 103.176,16.736 L103.176,9.008 Z M120.792,5 L120.792,9.008 L123.624,9.008 L123.624,11.12 L120.792,11.12 L120.792,18.32 C120.792,18.656 120.864,18.896 121.008,19.064 C121.152,19.208 121.368,19.304 121.68,19.304 L123.312,19.304 L123.312,21.416 L121.272,21.416 C120.216,21.416 119.424,21.128 118.944,20.576 C118.464,20.048 118.248,19.304 118.248,18.32 L118.248,11.12 L115.944,11.12 L115.944,9.008 L118.248,9.008 L118.248,6.056 L120.792,5 Z" id="/scout"></path>
            </g>
            <g id="分组-copy-3" transform="translate(0.000000, 30.000000)">
                <path d="M17.92,43.56 C17.0666624,42.8666632 16.2133376,42.353335 15.36,42.02 C14.5066624,41.686665 13.680004,41.52 12.88,41.52 C11.8666616,41.52 11.0400032,41.7599976 10.4,42.24 C9.7599968,42.7200024 9.44,43.3466628 9.44,44.12 C9.44,44.653336 9.5999984,45.0933316 9.92,45.44 C10.2400016,45.7866684 10.6599974,46.0866654 11.18,46.34 C11.7000026,46.5933346 12.2866634,46.8133324 12.94,47 C13.5933366,47.1866676 14.2399968,47.3866656 14.88,47.6 C17.4400128,48.4533376 19.3133274,49.5933262 20.5,51.02 C21.6866726,52.4466738 22.28,54.3066552 22.28,56.6 C22.28,58.1466744 22.0200026,59.5466604 21.5,60.8 C20.9799974,62.0533396 20.220005,63.1266622 19.22,64.02 C18.219995,64.9133378 16.9933406,65.6066642 15.54,66.1 C14.0866594,66.5933358 12.4400092,66.84 10.6,66.84 C6.7866476,66.84 3.2533496,65.706678 -2.98041414e-09,63.44 L3.36,57.12 C4.5333392,58.1600052 5.6933276,58.9333308 6.84,59.44 C7.9866724,59.9466692 9.1199944,60.2 10.24,60.2 C11.5200064,60.2 12.4733302,59.9066696 13.1,59.32 C13.7266698,58.7333304 14.04,58.0666704 14.04,57.32 C14.04,56.8666644 13.9600008,56.473335 13.8,56.14 C13.6399992,55.806665 13.3733352,55.5000014 13,55.22 C12.6266648,54.9399986 12.140003,54.6800012 11.54,54.44 C10.939997,54.1999988 10.2133376,53.9333348 9.36,53.64 C8.3466616,53.3199984 7.3533382,52.9666686 6.38,52.58 C5.4066618,52.1933314 4.5400038,51.6800032 3.78,51.04 C3.0199962,50.3999968 2.406669,49.5933382 1.94,48.62 C1.473331,47.6466618 1.24,46.4133408 1.24,44.92 C1.24,43.4266592 1.4866642,42.0733394 1.98,40.86 C2.4733358,39.6466606 3.1666622,38.606671 4.06,37.74 C4.9533378,36.873329 6.0466602,36.2000024 7.34,35.72 C8.6333398,35.2399976 10.079992,35 11.68,35 C13.1733408,35 14.7333252,35.2066646 16.36,35.62 C17.9866748,36.0333354 19.5466592,36.639996 21.04,37.44 L17.92,43.56 Z M44.41,42.48 L35.09,42.48 L35.09,47.52 L43.89,47.52 L43.89,54.16 L35.09,54.16 L35.09,59.36 L44.41,59.36 L44.41,66 L27.25,66 L27.25,35.84 L44.41,35.84 L44.41,42.48 Z M50.1,66 L50.1,35.84 L57.94,35.84 L72.42,54.28 L72.42,35.84 L80.22,35.84 L80.22,66 L72.42,66 L57.94,47.56 L57.94,66 L50.1,66 Z M103.15,43.56 C102.296662,42.8666632 101.443338,42.353335 100.59,42.02 C99.7366624,41.686665 98.910004,41.52 98.11,41.52 C97.0966616,41.52 96.2700032,41.7599976 95.63,42.24 C94.9899968,42.7200024 94.67,43.3466628 94.67,44.12 C94.67,44.653336 94.8299984,45.0933316 95.15,45.44 C95.4700016,45.7866684 95.8899974,46.0866654 96.41,46.34 C96.9300026,46.5933346 97.5166634,46.8133324 98.17,47 C98.8233366,47.1866676 99.4699968,47.3866656 100.11,47.6 C102.670013,48.4533376 104.543327,49.5933262 105.73,51.02 C106.916673,52.4466738 107.51,54.3066552 107.51,56.6 C107.51,58.1466744 107.250003,59.5466604 106.73,60.8 C106.209997,62.0533396 105.450005,63.1266622 104.45,64.02 C103.449995,64.9133378 102.223341,65.6066642 100.77,66.1 C99.3166594,66.5933358 97.6700092,66.84 95.83,66.84 C92.0166476,66.84 88.4833496,65.706678 85.23,63.44 L88.59,57.12 C89.7633392,58.1600052 90.9233276,58.9333308 92.07,59.44 C93.2166724,59.9466692 94.3499944,60.2 95.47,60.2 C96.7500064,60.2 97.7033302,59.9066696 98.33,59.32 C98.9566698,58.7333304 99.27,58.0666704 99.27,57.32 C99.27,56.8666644 99.1900008,56.473335 99.03,56.14 C98.8699992,55.806665 98.6033352,55.5000014 98.23,55.22 C97.8566648,54.9399986 97.370003,54.6800012 96.77,54.44 C96.169997,54.1999988 95.4433376,53.9333348 94.59,53.64 C93.5766616,53.3199984 92.5833382,52.9666686 91.61,52.58 C90.6366618,52.1933314 89.7700038,51.6800032 89.01,51.04 C88.2499962,50.3999968 87.636669,49.5933382 87.17,48.62 C86.703331,47.6466618 86.47,46.4133408 86.47,44.92 C86.47,43.4266592 86.7166642,42.0733394 87.21,40.86 C87.7033358,39.6466606 88.3966622,38.606671 89.29,37.74 C90.1833378,36.873329 91.2766602,36.2000024 92.57,35.72 C93.8633398,35.2399976 95.309992,35 96.91,35 C98.4033408,35 99.9633252,35.2066646 101.59,35.62 C103.216675,36.0333354 104.776659,36.639996 106.27,37.44 L103.15,43.56 Z M129.64,42.48 L120.32,42.48 L120.32,47.52 L129.12,47.52 L129.12,54.16 L120.32,54.16 L120.32,59.36 L129.64,59.36 L129.64,66 L112.48,66 L112.48,35.84 L129.64,35.84 L129.64,42.48 Z M143.17,59.92 L144.89,59.92 C146.863343,59.92 148.276662,59.6666692 149.13,59.16 C149.983338,58.6533308 150.41,57.8400056 150.41,56.72 C150.41,55.5999944 149.983338,54.7866692 149.13,54.28 C148.276662,53.7733308 146.863343,53.52 144.89,53.52 L143.17,53.52 L143.17,59.92 Z M143.17,47.68 L144.61,47.68 C147.063346,47.68 148.29,46.7066764 148.29,44.76 C148.29,42.8133236 147.063346,41.84 144.61,41.84 L143.17,41.84 L143.17,47.68 Z M135.33,35.84 L147.01,35.84 C149.783347,35.84 151.889993,36.50666 153.33,37.84 C154.770007,39.17334 155.49,41.0933208 155.49,43.6 C155.49,45.1200076 155.216669,46.379995 154.67,47.38 C154.123331,48.380005 153.290006,49.2266632 152.17,49.92 C153.290006,50.1333344 154.243329,50.4599978 155.03,50.9 C155.816671,51.3400022 156.456664,51.8799968 156.95,52.52 C157.443336,53.1600032 157.796666,53.879996 158.01,54.68 C158.223334,55.480004 158.33,56.3333288 158.33,57.24 C158.33,58.6533404 158.083336,59.9066612 157.59,61 C157.096664,62.0933388 156.403338,63.0133296 155.51,63.76 C154.616662,64.5066704 153.530006,65.0666648 152.25,65.44 C150.969994,65.8133352 149.530008,66 147.93,66 L135.33,66 L135.33,35.84 Z M169.66,50.92 C169.66,52.120006 169.886664,53.2266616 170.34,54.24 C170.793336,55.2533384 171.406663,56.1333296 172.18,56.88 C172.953337,57.6266704 173.853328,58.2066646 174.88,58.62 C175.906672,59.0333354 176.993328,59.24 178.14,59.24 C179.286672,59.24 180.373328,59.0333354 181.4,58.62 C182.426672,58.2066646 183.333329,57.6266704 184.12,56.88 C184.906671,56.1333296 185.526664,55.2533384 185.98,54.24 C186.433336,53.2266616 186.66,52.120006 186.66,50.92 C186.66,49.719994 186.433336,48.6133384 185.98,47.6 C185.526664,46.5866616 184.906671,45.7066704 184.12,44.96 C183.333329,44.2133296 182.426672,43.6333354 181.4,43.22 C180.373328,42.8066646 179.286672,42.6 178.14,42.6 C176.993328,42.6 175.906672,42.8066646 174.88,43.22 C173.853328,43.6333354 172.953337,44.2133296 172.18,44.96 C171.406663,45.7066704 170.793336,46.5866616 170.34,47.6 C169.886664,48.6133384 169.66,49.719994 169.66,50.92 Z M161.46,50.92 C161.46,48.6799888 161.873329,46.593343 162.7,44.66 C163.526671,42.726657 164.673326,41.0400072 166.14,39.6 C167.606674,38.1599928 169.35999,37.0333374 171.4,36.22 C173.44001,35.4066626 175.686654,35 178.14,35 C180.566679,35 182.806656,35.4066626 184.86,36.22 C186.913344,37.0333374 188.679993,38.1599928 190.16,39.6 C191.640007,41.0400072 192.793329,42.726657 193.62,44.66 C194.446671,46.593343 194.86,48.6799888 194.86,50.92 C194.86,53.1600112 194.446671,55.246657 193.62,57.18 C192.793329,59.113343 191.640007,60.7999928 190.16,62.24 C188.679993,63.6800072 186.913344,64.8066626 184.86,65.62 C182.806656,66.4333374 180.566679,66.84 178.14,66.84 C175.686654,66.84 173.44001,66.4333374 171.4,65.62 C169.35999,64.8066626 167.606674,63.6800072 166.14,62.24 C164.673326,60.7999928 163.526671,59.113343 162.7,57.18 C161.873329,55.246657 161.46,53.1600112 161.46,50.92 Z M210.99,42.48 L210.99,66 L203.15,66 L203.15,42.48 L196.71,42.48 L196.71,35.84 L217.43,35.84 L217.43,42.48 L210.99,42.48 Z" id="SENSEBOT" fill="#0071FF"></path>
                <path d="M388.07,49.92 L378.67,35.84 L388.35,35.84 L392.43,43.64 L397.47,35.84 L407.15,35.84 L397.19,49.92 L408.43,66 L398.87,66 L392.83,56.16 L385.75,66 L376.27,66 L388.07,49.92 Z M419.08,42.48 L414.68,42.48 L414.68,35.84 L426.92,35.84 L426.92,66 L419.08,66 L419.08,42.48 Z" id="X1" fill="#EAEAEA"></path>
                <path d="M325.68,0.72 C326.480004,0.8800008 327.079998,0.96 327.48,0.96 C327.880002,0.96 328.519996,1.159998 329.4,1.56 C330.280004,1.960002 332.519982,2.6799948 336.12,3.72 C336.520002,4.6800048 336.819999,5.3399982 337.02,5.7 C337.220001,6.0600018 337.260001,6.5599968 337.14,7.2 C337.019999,7.8400032 336.92,8.4799968 336.84,9.12 C336.76,9.7600032 336.640001,10.3399974 336.48,10.86 C336.319999,11.3800026 335.700005,13.3799826 334.62,16.86 C333.539995,20.3400174 332.800002,22.2399984 332.4,22.56 C331.999998,22.8800016 331.8,23.2799976 331.8,23.76 C331.8,24.2400024 331.580002,24.8999958 331.14,25.74 C330.699998,26.5800042 330.240002,27.599994 329.76,28.8 C329.279998,30.000006 328.140009,32.099985 326.34,35.1 C324.539991,38.100015 323.440002,40.1199948 323.04,41.16 L324.24,43.2 L332.04,49.2 C333.800009,51.1200096 334.919998,52.6599942 335.4,53.82 C335.880002,54.9800058 336.399997,56.0799948 336.96,57.12 C337.520003,58.1600052 337.84,58.9399974 337.92,59.46 C338,59.9800026 338.299997,61.4999874 338.82,64.02 C339.340003,66.5400126 339.520001,69.0799872 339.36,71.64 L338.16,72 L337.68,73.44 L336.48,72.84 C335.839997,73.4800032 335.360002,73.8 335.04,73.8 C334.719998,74.2800024 334.320002,74.7599976 333.84,75.24 C332.959996,74.9199984 332.120004,74.959998 331.32,75.36 L331.08,75 L329.28,75 C328.399996,73.1599908 327.740002,71.8600038 327.3,71.1 C326.859998,70.3399962 326.540001,69.1800078 326.34,67.62 C326.139999,66.0599922 325.920001,64.5200076 325.68,63 C325.439999,61.4799924 325.160002,60.2000052 324.84,59.16 C324.519998,58.1199948 324.240001,57.0600054 324,55.98 C323.759999,54.8999946 323.280004,53.9200044 322.56,53.04 C321.839996,52.1599956 320.600009,50.320014 318.84,47.52 L316.44,49.92 L315.6,49.56 L314.28,50.4 C313.399996,51.6800064 312.92,52.819995 312.84,53.82 C312.76,54.820005 312.600001,55.819995 312.36,56.82 C312.119999,57.820005 312.359996,59.7399858 313.08,62.58 C313.800004,65.4200142 314.2,67.2599958 314.28,68.1 C314.36,68.9400042 314.479999,69.7999956 314.64,70.68 C314.800001,71.5600044 314.740001,72.1799982 314.46,72.54 C314.179999,72.9000018 313.720003,73.679994 313.08,74.88 L312.12,74.4 L309.48,76.68 C308.279994,76.279998 307.000007,75.9600012 305.64,75.72 C304.599995,73.7999904 303.760003,72.5000034 303.12,71.82 C302.479997,71.1399966 302.219999,70.500003 302.34,69.9 C302.460001,69.299997 302.54,68.7400026 302.58,68.22 C302.62,67.6999974 302.420002,65.9200152 301.98,62.88 C301.539998,59.8399848 301.180001,57.9600036 300.9,57.24 C300.619999,56.5199964 300.380001,55.760004 300.18,54.96 C299.979999,54.159996 299.700002,53.5800018 299.34,53.22 C298.979998,52.8599982 298.440004,52.1600052 297.72,51.12 L293.88,49.2 C292.999996,52.000014 292.52,53.699997 292.44,54.3 C292.36,54.900003 292.260001,55.4399976 292.14,55.92 C292.019999,56.4000024 292.059999,56.7999984 292.26,57.12 C292.460001,57.4400016 293.039995,58.7599884 294,61.08 C294.960005,63.4000116 295.48,64.859997 295.56,65.46 C295.64,66.060003 295.799999,66.7399962 296.04,67.5 C296.280001,68.2600038 296.300001,68.9799966 296.1,69.66 C295.899999,70.3400034 295.640002,71.6399904 295.32,73.56 L294.72,73.56 C294.159997,74.0400024 293.88,74.3999988 293.88,74.64 C293.88,74.8800012 293.800001,75.2799972 293.64,75.84 L291.96,75.96 L290.64,77.04 L288.36,76.44 L285.36,76.44 C282.559986,73.1599836 281.040001,71.2800024 280.8,70.8 C280.559999,70.3199976 280.260002,69.8200026 279.9,69.3 C279.539998,68.7799974 279.419999,68.2600026 279.54,67.74 C279.660001,67.2199974 279.72,66.7400022 279.72,66.3 C279.72,65.8599978 279.859999,65.340003 280.14,64.74 C280.420001,64.139997 280.460001,63.540003 280.26,62.94 C280.059999,62.339997 279.92,61.6800036 279.84,60.96 C279.76,60.2399964 279.600001,59.580003 279.36,58.98 C279.119999,58.379997 278.880001,57.7400034 278.64,57.06 C278.399999,56.3799966 278.000003,55.8200022 277.44,55.38 C276.879997,54.9399978 275.920007,54.0000072 274.56,52.56 C274.079998,52.56 273.640002,52.4400012 273.24,52.2 C273.079999,51.1599948 273.079999,50.2200042 273.24,49.38 C273.400001,48.5399958 273.400001,47.8800024 273.24,47.4 L273.84,47.28 C274.880005,44.7199872 276.059993,40.840026 277.38,35.64 C278.700007,30.439974 279.479999,26.9200092 279.72,25.08 C279.960001,23.2399908 280.279998,21.3600096 280.68,19.44 C281.080002,17.5199904 281.140001,16.260003 280.86,15.66 C280.579999,15.059997 280.48,14.4400032 280.56,13.8 C280.64,13.1599968 280.360003,12.3200052 279.72,11.28 L280.44,10.32 C281.160004,10.1599992 281.639999,10.0400004 281.88,9.96 C282.120001,9.8799996 282.419998,9.9199992 282.78,10.08 C283.140002,10.2400008 283.559998,10.2800004 284.04,10.2 C284.520002,10.1199996 285.119996,10.2199986 285.84,10.5 C286.560004,10.7800014 287.299996,11.019999 288.06,11.22 C288.820004,11.420001 290.919983,12.3599916 294.36,14.04 C295.000003,14.7600036 295.419999,15.2399988 295.62,15.48 C295.820001,15.7200012 295.94,16.039998 295.98,16.44 C296.02,16.840002 296.099999,17.239998 296.22,17.64 C296.340001,18.040002 296.36,18.4999974 296.28,19.02 C296.2,19.5400026 296.16,20.0799972 296.16,20.64 C296.16,21.2000028 295.980002,21.779997 295.62,22.38 C295.259998,22.980003 294.680004,24.2199906 293.88,26.1 C293.079996,27.9800094 292.300004,29.4799944 291.54,30.6 C290.779996,31.7200056 288.840016,35.479968 285.72,41.88 L285.72,41.28 L283.8,43.08 L281.04,46.44 L277.8,48.72 C281.000016,50.0000064 284.119985,51.5199912 287.16,53.28 C287.960004,52.079994 288.539998,51.0000048 288.9,50.04 C289.260002,49.0799952 292.279972,41.400072 297.96,27 C298.200001,29.4800124 298.180001,31.5599916 297.9,33.24 C297.619999,34.9200084 297.340001,36.1799958 297.06,37.02 C296.779999,37.8600042 296.320003,39.4399884 295.68,41.76 L296.04,41.88 C297.160006,38.0399808 297.919998,35.5000062 298.32,34.26 C298.720002,33.0199938 299.479994,30.0400236 300.6,25.32 C301.720006,20.5999764 302.32,17.0800116 302.4,14.76 L300.36,13.08 C300.199999,11.479992 300.279998,9.6400104 300.6,7.56 L301.68,7.92 L303,6.84 C304.360007,7.240002 305.359997,7.4999994 306,7.62 C306.640003,7.7400006 307.339996,7.999998 308.1,8.4 C308.860004,8.800002 309.619996,9.1599984 310.38,9.48 C311.140004,9.8000016 312.47999,10.6399932 314.4,12 C314.800002,13.0400052 315.119999,13.759998 315.36,14.16 C315.600001,14.560002 315.600001,15.1799958 315.36,16.02 C315.119999,16.8600042 314.96,17.7599952 314.88,18.72 C314.8,19.6800048 314.480003,20.6399952 313.92,21.6 C313.359997,22.5600048 312.880002,23.539995 312.48,24.54 C312.079998,25.540005 311.380005,26.6599938 310.38,27.9 C309.379995,29.1400062 308.720002,30.0999966 308.4,30.78 C308.079998,31.4600034 305.760022,36.2399556 301.44,45.12 L304.8,47.4 L307.92,50.52 L308.52,50.16 C312.040018,38.15994 313.999998,31.1800098 314.4,29.22 C314.800002,27.2599902 315.299997,25.3400094 315.9,23.46 C316.500003,21.5799906 317.059997,19.64001 317.58,17.64 C318.100003,15.63999 319.119992,13.64001 320.64,11.64 C320.159998,13.8000108 319.820001,15.2199966 319.62,15.9 C319.419999,16.5800034 319.160002,18.6999822 318.84,22.26 C318.519998,25.8200178 318.020003,28.999986 317.34,31.8 C316.659997,34.600014 316.36,36.8799912 316.44,38.64 C317.560006,35.439984 318.299998,33.3200052 318.66,32.28 C319.020002,31.2399948 319.299999,30.320004 319.5,29.52 C319.700001,28.719996 320.319995,26.1800214 321.36,21.9 C322.400005,17.6199786 322.979999,15.080004 323.1,14.28 C323.220001,13.479996 323.379999,12.680004 323.58,11.88 C323.780001,11.079996 323.600003,10.280004 323.04,9.48 L320.52,9.72 C320.199998,8.1999924 319.940001,6.7000074 319.74,5.22 C319.539999,3.7399926 319.539999,2.9200008 319.74,2.76 C319.940001,2.5999992 320.199998,2.2800024 320.52,1.8 C321.080003,1.8 321.479999,1.7200008 321.72,1.56 C321.960001,1.3999992 323.279988,1.120002 325.68,0.72 Z M256.8,4.8 C261.120022,6.5600088 263.599997,7.340001 264.24,7.14 C264.880003,6.939999 265.519997,6.8200002 266.16,6.78 C266.800003,6.7399998 267.519996,6.4400028 268.32,5.88 L274.92,7.92 C275.560003,8.720004 276.019999,9.219999 276.3,9.42 C276.580001,9.620001 276.7,9.9799974 276.66,10.5 C276.62,11.0200026 276.64,11.4399984 276.72,11.76 C276.8,12.0800016 276.620002,12.839994 276.18,14.04 C275.739998,15.240006 275.040005,16.6799916 274.08,18.36 L272.16,19.56 L271.08,20.76 C270.279996,21.0000012 268.120018,22.0799904 264.6,24 L262.56,26.04 L260.64,27.6 C261.680005,25.1199876 262.259999,23.4600042 262.38,22.62 C262.500001,21.7799958 262.719998,20.9000046 263.04,19.98 C263.360002,19.0599954 263.160004,18.200004 262.44,17.4 C261.719996,16.599996 261.060003,15.7600044 260.46,14.88 C259.859997,13.9999956 258.640009,11.6800188 256.8,7.92 L257.16,7.92 L256.8,4.8 Z M265.44,29.04 C265.760002,29.2000008 267.219987,29.5599972 269.82,30.12 C272.420013,30.6800028 274.199995,31.1199984 275.16,31.44 C275.560002,32.3200044 275.620001,32.9999976 275.34,33.48 C275.059999,33.9600024 274.979999,34.399998 275.1,34.8 C275.220001,35.200002 275.180001,35.599998 274.98,36 C274.779999,36.400002 274.440002,37.4799912 273.96,39.24 C273.479998,41.0000088 272.620006,43.1399874 271.38,45.66 C270.139994,48.1800126 269.440001,49.7799966 269.28,50.46 C269.119999,51.1400034 268.920001,51.7599972 268.68,52.32 C268.439999,52.8800028 268.36,53.5199964 268.44,54.24 C268.52,54.9600036 268.52,55.6999962 268.44,56.46 C268.36,57.2200038 268.439999,57.8599974 268.68,58.38 C268.920001,58.9000026 269.139999,59.4799968 269.34,60.12 C269.540001,60.7600032 269.899997,61.5199956 270.42,62.4 C270.940003,63.2800044 271.439998,64.1799954 271.92,65.1 C272.400002,66.0200046 273.839988,67.8999858 276.24,70.74 C278.640012,73.5800142 280.559993,76.199988 282,78.6 C284.880014,79.000002 290.219961,79.7799942 298.02,80.94 C305.820039,82.1000058 311.319984,83.0599962 314.52,83.82 C317.720016,84.5800038 320.099992,85.1199984 321.66,85.44 C323.220008,85.7600016 324.859991,86.0999982 326.58,86.46 C328.300009,86.8200018 329.899993,87.0199998 331.38,87.06 C332.860007,87.1000002 334.299993,87.1399998 335.7,87.18 C337.100007,87.2200002 338.559992,87.3199992 340.08,87.48 C341.600008,87.6400008 343.039993,87.7599996 344.4,87.84 C345.760007,87.9200004 347.099993,88.1999976 348.42,88.68 C349.740007,89.1600024 351.019994,89.5599984 352.26,89.88 C353.500006,90.2000016 355.399987,91.35999 357.96,93.36 L359.28,95.64 L360.72,96.12 L361.68,97.92 C360.079992,99.2800068 359.080002,99.9799998 358.68,100.02 C358.279998,100.06 357.880002,100.279998 357.48,100.68 C356.439995,100.519999 355.660003,100.499999 355.14,100.62 C354.619997,100.740001 351.280031,100.640002 345.12,100.32 L344.88,101.64 C342.87999,102.040002 341.220007,102.459998 339.9,102.9 C338.579993,103.340002 337.200007,103.56 335.76,103.56 C334.319993,103.56 333.000006,103.719998 331.8,104.04 C330.599994,104.360002 329.700003,104.48 329.1,104.4 C328.499997,104.32 327.900003,104.28 327.3,104.28 C326.699997,104.28 326.120003,104.140001 325.56,103.86 C324.999997,103.579999 322.800019,102.540009 318.96,100.74 C315.119981,98.939991 312.700005,97.8800016 311.7,97.56 C310.699995,97.2399984 309.24001,96.7200036 307.32,96 C305.39999,95.2799964 303.48001,94.7000022 301.56,94.26 C299.63999,93.8199978 297.760009,93.3400026 295.92,92.82 C294.079991,92.2999974 292.260009,91.940001 290.46,91.74 C288.659991,91.539999 286.960008,91.2600018 285.36,90.9 C283.759992,90.5399982 282.480005,90.4799988 281.52,90.72 C280.559995,90.9600012 279.680004,91.1399994 278.88,91.26 C278.079996,91.3800006 276.780009,91.7799966 274.98,92.46 C273.179991,93.1400034 271.720006,93.5199996 270.6,93.6 C269.479994,93.6800004 268.360006,93.819999 267.24,94.02 C266.119994,94.220001 265.020005,94.3000002 263.94,94.26 C262.859995,94.2199998 261.800005,94.2599994 260.76,94.38 C259.719995,94.5000006 257.880013,93.9200064 255.24,92.64 C254.439996,91.1999928 253.880002,90.3000018 253.56,89.94 C253.239998,89.5799982 252.800003,89.0600034 252.24,88.38 C251.679997,87.6999966 251.240002,87.2000016 250.92,86.88 C250.599998,86.5599984 250.48,86.1400026 250.56,85.62 C250.64,85.0999974 250.66,84.6000024 250.62,84.12 C250.58,83.6399976 250.679999,82.8400056 250.92,81.72 C253.00001,80.119992 254.419996,79.2600006 255.18,79.14 C255.940004,79.0199994 256.699996,78.8200014 257.46,78.54 C258.220004,78.2599986 259.379992,78.2799984 260.94,78.6 C262.500008,78.9200016 265.439978,78.0400104 269.76,75.96 C268.399993,74.0399904 267.440003,72.7400034 266.88,72.06 C266.319997,71.3799966 265.740003,70.5000054 265.14,69.42 C264.539997,68.3399946 263.900003,67.2800052 263.22,66.24 C262.539997,65.1999948 262.040002,64.1000058 261.72,62.94 C261.399998,61.7799942 261.040002,60.6200058 260.64,59.46 C260.239998,58.2999942 260.02,57.1400058 259.98,55.98 C259.94,54.8199942 259.800001,52.640016 259.56,49.44 C258.039992,48.8799972 256.840004,48.799998 255.96,49.2 L254.88,48.48 C251.519983,43.7599764 249.82,41.1400026 249.78,40.62 C249.74,40.0999974 249.560002,39.1600068 249.24,37.8 L249.72,37.44 L249.72,35.76 L254.16,36.84 L259.44,33.48 L261,30.72 C261.400002,30.8000004 261.699999,30.8599998 261.9,30.9 C262.100001,30.9400002 262.319999,30.860001 262.56,30.66 C262.800001,30.459999 263.519994,30.2800008 264.72,30.12 L265.44,29.04 Z" id="巡" fill="#EAEAEA"></path>
                <rect id="矩形" stroke="#979797" fill="#D8D8D8" fill-rule="nonzero" x="363.5" y="32.5" width="1" height="39"></rect>
            </g>
        </g>
    </g>
</svg>