<?xml version="1.0" encoding="UTF-8"?>
<svg width="473px" height="131px" viewBox="0 0 473 131" version="1.1" xmlns="http://www.w3.org/2000/svg" xmlns:xlink="http://www.w3.org/1999/xlink">
    <!-- Generator: Sketch 52.4 (67378) - http://www.bohemiancoding.com/sketch -->
    <title>icon_chu</title>
    <desc>Created with Sketch.</desc>
    <g id="Page-1" stroke="none" stroke-width="1" fill="none" fill-rule="evenodd">
        <g id="icon_chu" transform="translate(-1.000000, 0.000000)">
            <g id="分组-62" transform="translate(279.000000, 0.000000)" fill="#00A1BA">
                <path d="M18.12,5.528 C20.136,5.528 21.816,6.056 23.112,7.112 C24.36,8.12 25.104,9.512 25.368,11.24 L22.632,11.24 C22.344,10.112 21.816,9.296 21.024,8.768 C20.256,8.24 19.272,8 18.072,8 C16.272,8 14.928,8.6 14.016,9.848 C13.176,10.952 12.768,12.488 12.768,14.456 C12.768,16.472 13.176,18.032 13.992,19.112 C14.88,20.264 16.272,20.864 18.144,20.864 C19.368,20.864 20.376,20.552 21.144,19.976 C21.96,19.328 22.536,18.344 22.872,17.048 L25.608,17.048 C25.224,19.064 24.336,20.624 22.92,21.752 C21.6,22.808 20.016,23.336 18.168,23.336 C15.312,23.336 13.176,22.424 11.784,20.648 C10.56,19.112 9.96,17.048 9.96,14.456 C9.96,11.912 10.584,9.824 11.856,8.24 C13.296,6.416 15.384,5.528 18.12,5.528 Z M28.008,5.528 L30.744,5.528 L30.744,12.248 C31.2,11.552 31.776,11.048 32.448,10.712 C33.048,10.4 33.744,10.256 34.536,10.256 C36.048,10.256 37.176,10.688 37.92,11.576 C38.616,12.416 38.976,13.664 38.976,15.32 L38.976,23 L36.24,23 L36.24,15.8 C36.24,14.744 36.024,13.928 35.616,13.376 C35.136,12.776 34.44,12.488 33.504,12.488 C32.64,12.488 31.968,12.824 31.488,13.496 C30.984,14.168 30.744,15.008 30.744,16.064 L30.744,23 L28.008,23 L28.008,5.528 Z M41.856,10.592 L44.592,10.592 L44.592,18.152 C44.592,19.16 44.784,19.88 45.216,20.36 C45.648,20.816 46.32,21.056 47.28,21.056 C47.88,21.056 48.456,20.792 49.008,20.288 C49.56,19.76 49.968,19.064 50.208,18.176 L50.208,10.592 L52.944,10.592 L52.944,23 L50.208,23 L50.208,21.392 C49.152,22.688 47.856,23.336 46.32,23.336 C43.344,23.336 41.856,21.656 41.856,18.32 L41.856,10.592 Z" id="Chu-Copy"></path>
                <polygon id="矩形" transform="translate(45.976402, 5.461302) scale(-1, 1) rotate(37.000000) translate(-45.976402, -5.461302) " points="44.9238417 3.48526354 46.9863821 1.93102789 47.0430085 7.38408553 44.9097955 8.99157681"></polygon>
                <polygon id="路径-copy-4" opacity="0.3" points="1.81171345e-12 0 7.968 0 7.968 2.232 2.496 2.232 2.496 24.2785656 0 24.2785656"></polygon>
                <polygon id="路径-copy-5" opacity="0.3" points="138.472 0 140.968 0 140.968 23.7863767 133 23.7863767 133 21.5543767 138.472 21.5543767"></polygon>
                <path d="M63.6,8 L65.072,8 L59.488,22.72 L58,22.72 L63.6,8 Z M72.912,6.056 L72.912,10.064 L75.744,10.064 L75.744,12.176 L72.912,12.176 L72.912,19.376 C72.912,19.712 72.984,19.952 73.128,20.12 C73.272,20.264 73.488,20.36 73.8,20.36 L75.432,20.36 L75.432,22.472 L73.392,22.472 C72.336,22.472 71.544,22.184 71.064,21.632 C70.584,21.104 70.368,20.36 70.368,19.376 L70.368,12.176 L68.064,12.176 L68.064,10.064 L70.368,10.064 L70.368,7.112 L72.912,6.056 Z M83.496,9.728 C85.368,9.728 86.88,10.352 88.008,11.6 C89.112,12.824 89.688,14.384 89.688,16.28 C89.688,18.152 89.136,19.712 88.032,20.912 C86.88,22.16 85.368,22.808 83.496,22.808 C81.624,22.808 80.112,22.16 78.96,20.912 C77.856,19.712 77.304,18.152 77.304,16.28 C77.304,14.384 77.856,12.824 78.984,11.6 C80.112,10.352 81.624,9.728 83.496,9.728 Z M83.496,11.816 C82.32,11.816 81.408,12.272 80.76,13.208 C80.184,14 79.92,15.032 79.92,16.28 C79.92,17.528 80.184,18.536 80.76,19.328 C81.408,20.24 82.32,20.72 83.496,20.72 C84.672,20.72 85.584,20.24 86.256,19.328 C86.832,18.512 87.12,17.504 87.12,16.28 C87.12,15.032 86.832,14 86.256,13.208 C85.584,12.272 84.672,11.816 83.496,11.816 Z M92.112,10.064 L94.656,10.064 L94.656,17.624 C94.656,18.68 94.872,19.448 95.328,19.928 C95.76,20.408 96.48,20.672 97.464,20.672 C98.136,20.672 98.736,20.384 99.312,19.856 C99.888,19.304 100.296,18.56 100.512,17.648 L100.512,10.064 L103.056,10.064 L103.056,22.472 L100.512,22.472 L100.512,20.792 C99.456,22.136 98.16,22.808 96.6,22.808 C93.6,22.808 92.112,21.128 92.112,17.792 L92.112,10.064 Z M111.48,9.728 C113.064,9.728 114.336,10.088 115.296,10.808 C116.256,11.576 116.88,12.728 117.12,14.264 L114.6,14.264 C114.432,13.424 114.096,12.8 113.568,12.416 C113.04,12.008 112.344,11.816 111.48,11.816 C110.424,11.816 109.608,12.2 109.008,12.992 C108.384,13.76 108.096,14.864 108.096,16.256 C108.096,17.648 108.384,18.752 108.984,19.544 C109.536,20.312 110.352,20.72 111.456,20.72 C113.352,20.72 114.408,19.76 114.648,17.888 L117.168,17.888 C116.88,19.544 116.232,20.792 115.272,21.608 C114.312,22.4 113.016,22.808 111.432,22.808 C109.536,22.808 108.072,22.184 107.016,20.936 C105.984,19.736 105.48,18.2 105.48,16.28 C105.48,14.408 105.984,12.872 106.992,11.672 C108.072,10.376 109.56,9.728 111.48,9.728 Z M119.352,5 L121.896,5 L121.896,11.816 C122.352,11.096 122.928,10.544 123.624,10.208 C124.248,9.872 124.944,9.728 125.736,9.728 C127.224,9.728 128.352,10.16 129.12,11.048 C129.84,11.888 130.2,13.136 130.2,14.768 L130.2,22.472 L127.656,22.472 L127.656,15.2 C127.656,14.096 127.416,13.28 126.984,12.704 C126.504,12.104 125.76,11.816 124.8,11.816 C123.936,11.816 123.24,12.152 122.712,12.848 C122.16,13.544 121.896,14.432 121.896,15.512 L121.896,22.472 L119.352,22.472 L119.352,5 Z" id="/-touch"></path>
            </g>
            <g id="分组-copy-2" transform="translate(0.000000, 46.000000)">
                <text id="SENSETOUCH" font-family="Futura-Bold, Futura" font-size="40" font-weight="bold" line-spacing="72" letter-spacing="0.0500000007" fill="#00A1BA">
                    <tspan x="0.909999996" y="42">SENSETOUCH</tspan>
                </text>
                <text id="C1" font-family="Futura-Bold, Futura" font-size="40" font-weight="bold" line-spacing="72" letter-spacing="0.0500000007" fill="#EAEAEA">
                    <tspan x="429.01" y="42">C1</tspan>
                </text>
                <text id="触" font-family="HYChengXingJ" font-size="120" font-weight="normal" line-spacing="72" fill="#EAEAEA">
                    <tspan x="293" y="108">触</tspan>
                </text>
                <rect id="矩形" stroke="#979797" fill="#D8D8D8" fill-rule="nonzero" x="413.5" y="19.5" width="1" height="39"></rect>
            </g>
        </g>
    </g>
</svg>