<?xml version="1.0" encoding="UTF-8"?>
<svg width="470px" height="139px" viewBox="0 0 470 139" version="1.1" xmlns="http://www.w3.org/2000/svg" xmlns:xlink="http://www.w3.org/1999/xlink">
    <!-- Generator: Sketch 52.4 (67378) - http://www.bohemiancoding.com/sketch -->
    <title>icon_tu</title>
    <desc>Created with Sketch.</desc>
    <g id="Page-1" stroke="none" stroke-width="1" fill="none" fill-rule="evenodd">
        <g id="icon_tu" transform="translate(-1.000000, -3.000000)">
            <g id="分组-61" transform="translate(296.000000, 0.000000)" fill="#00AA90">
                <path d="M10.36,7.864 L24.4,7.864 L24.4,10.264 L18.784,10.264 L18.784,25 L15.976,25 L15.976,10.264 L10.36,10.264 L10.36,7.864 Z M26.2,12.592 L28.936,12.592 L28.936,20.152 C28.936,21.16 29.128,21.88 29.56,22.36 C29.992,22.816 30.664,23.056 31.624,23.056 C32.224,23.056 32.8,22.792 33.352,22.288 C33.904,21.76 34.312,21.064 34.552,20.176 L34.552,12.592 L37.288,12.592 L37.288,25 L34.552,25 L34.552,23.392 C33.496,24.688 32.2,25.336 30.664,25.336 C27.688,25.336 26.2,23.656 26.2,20.32 L26.2,12.592 Z" id="Tu"></path>
                <path d="M48.6831928,8.32 L50.376,8.32 L44.3820807,24.4 L42.672,24.4 L48.6831928,8.32 Z M57.616,8.32 L57.616,12.328 L60.376,12.328 L60.376,14.584 L57.616,14.584 L57.616,21.592 C57.616,21.88 57.664,22.096 57.808,22.264 C57.952,22.408 58.144,22.48 58.432,22.48 L60.064,22.48 L60.064,24.736 L57.976,24.736 C56.896,24.736 56.104,24.448 55.6,23.872 C55.12,23.344 54.88,22.6 54.88,21.592 L54.88,14.584 L52.648,14.584 L52.648,12.328 L54.88,12.328 L54.88,9.448 L57.616,8.32 Z M68.504,12.32 C69.104,12.32 69.632,12.416 70.064,12.632 L70.064,15.368 C69.44,15.176 68.864,15.104 68.288,15.104 C67.568,15.104 66.92,15.368 66.344,15.944 C65.672,16.592 65.36,17.432 65.36,18.488 L65.36,25.064 L62.648,25.064 L62.648,12.656 L65.36,12.656 L65.36,14.432 C65.696,13.808 66.08,13.328 66.536,12.992 C67.088,12.536 67.736,12.32 68.504,12.32 Z M76.648,12.32 C78.688,12.32 80.248,12.992 81.328,14.384 C82.312,15.632 82.816,17.384 82.816,19.616 L73.528,19.616 C73.624,20.768 73.936,21.656 74.464,22.256 C74.992,22.856 75.76,23.168 76.744,23.168 C77.584,23.168 78.256,22.976 78.784,22.592 C79.192,22.28 79.552,21.776 79.888,21.08 L82.624,21.08 C82.336,22.232 81.76,23.216 80.896,23.984 C79.792,24.92 78.424,25.4 76.768,25.4 C74.92,25.4 73.456,24.824 72.376,23.696 C71.224,22.52 70.648,20.912 70.648,18.848 C70.648,17 71.176,15.464 72.28,14.216 C73.336,12.944 74.8,12.32 76.648,12.32 Z M76.792,14.32 C75.88,14.32 75.184,14.56 74.656,15.088 C74.152,15.592 73.816,16.336 73.648,17.32 L80.032,17.32 C79.792,15.304 78.712,14.32 76.792,14.32 Z M84.648,7.32 L87.384,7.32 L87.384,17.304 L92.472,12.384 L96,12.384 L90.504,17.52 L96.48,24.792 L92.976,24.792 L88.632,19.272 L87.384,20.448 L87.384,24.792 L84.648,24.792 L84.648,7.32 Z" id="/-trek"></path>
                <polygon id="矩形" transform="translate(32.976402, 7.461302) rotate(37.000000) translate(-32.976402, -7.461302) " points="31.9238417 5.48526354 33.9863821 3.93102789 34.0430085 9.38408553 31.9097955 10.9915768"></polygon>
                <polygon id="路径" opacity="0.3" points="2.71943179e-12 3 7.968 3 7.968 5.232 2.496 5.232 2.496 27.2785656 9.07718345e-13 27.2785656"></polygon>
                <polygon id="路径" opacity="0.3" points="106.472 3 108.968 3 108.968 26.7863767 101 26.7863767 101 24.5543767 106.472 24.5543767"></polygon>
            </g>
            <g id="分组-copy-2" transform="translate(0.000000, 51.000000)">
                <text id="SENSEROVER" font-family="Futura-Bold, Futura" font-size="40" font-weight="bold" line-spacing="72" letter-spacing="0.0500000007" fill="#00AA90">
                    <tspan x="0.789999996" y="42">SENSEROVER</tspan>
                </text>
                <text id="S1" font-family="Futura-Bold, Futura" font-size="40" font-weight="bold" line-spacing="72" letter-spacing="0.0500000007" fill="#000000">
                    <tspan x="426.43" y="42">S1</tspan>
                </text>
                <text id="途" font-family="HYChengXingJ" font-size="120" font-weight="normal" line-spacing="72" fill="#000000">
                    <tspan x="297" y="108">途</tspan>
                </text>
                <rect id="矩形" stroke="#979797" fill="#D8D8D8" fill-rule="nonzero" x="410.5" y="19.5" width="1" height="39"></rect>
            </g>
        </g>
    </g>
</svg>