<?xml version="1.0" encoding="UTF-8"?>
<svg width="479px" height="125px" viewBox="0 0 479 125" version="1.1" xmlns="http://www.w3.org/2000/svg" xmlns:xlink="http://www.w3.org/1999/xlink">
    <!-- Generator: Sketch 52.4 (67378) - http://www.bohemiancoding.com/sketch -->
    <title>icon_yu</title>
    <desc>Created with Sketch.</desc>
    <g id="Page-1" stroke="none" stroke-width="1" fill="none" fill-rule="evenodd">
        <g id="icon_yu" transform="translate(-1.000000, 0.000000)">
            <g id="分组-65" transform="translate(301.000000, 0.000000)" fill="#0071FF">
                <path d="M9.12,5.864 L12.504,5.864 L17.304,13.568 L22.08,5.864 L25.464,5.864 L18.696,16.184 L18.696,23 L15.888,23 L15.888,16.184 L9.12,5.864 Z M27.024,10.592 L29.76,10.592 L29.76,18.152 C29.76,19.16 29.952,19.88 30.384,20.36 C30.816,20.816 31.488,21.056 32.448,21.056 C33.048,21.056 33.624,20.792 34.176,20.288 C34.728,19.76 35.136,19.064 35.376,18.176 L35.376,10.592 L38.112,10.592 L38.112,23 L35.376,23 L35.376,21.392 C34.32,22.688 33.024,23.336 31.488,23.336 C28.512,23.336 27.024,21.656 27.024,18.32 L27.024,10.592 Z" id="Yu"></path>
                <polygon id="矩形-copy-14" transform="translate(30.976402, 5.461302) scale(-1, 1) rotate(37.000000) translate(-30.976402, -5.461302) " points="29.9238417 3.48526354 31.9863821 1.93102789 32.0430085 7.38408553 29.9097955 8.99157681"></polygon>
                <polygon id="路径-copy-11" opacity="0.3" points="1.81171345e-12 0 7.968 0 7.968 2.232 2.496 2.232 2.496 24.2785656 0 24.2785656"></polygon>
                <polygon id="路径-copy-12" opacity="0.3" points="103.472 0 105.968 0 105.968 23.7863767 98 23.7863767 98 21.5543767 103.472 21.5543767"></polygon>
                <path d="M49.6,8 L51.072,8 L45.488,22.72 L44,22.72 L49.6,8 Z M60.288,10 C60.912,10 61.464,10.096 61.896,10.312 L61.896,12.856 C61.272,12.664 60.672,12.592 60.096,12.592 C59.328,12.592 58.632,12.904 58.032,13.528 C57.384,14.2 57.072,15.088 57.072,16.168 L57.072,22.744 L54.528,22.744 L54.528,10.336 L57.072,10.336 L57.072,12.208 C57.384,11.536 57.792,11.032 58.272,10.696 C58.848,10.216 59.52,10 60.288,10 Z M68.504,10 C70.52,10 72.08,10.672 73.136,12.064 C74.096,13.312 74.6,15.04 74.624,17.248 L65.216,17.248 C65.312,18.448 65.624,19.384 66.2,20.032 C66.776,20.656 67.568,20.992 68.576,20.992 C69.464,20.992 70.184,20.776 70.736,20.368 C71.168,20.032 71.528,19.48 71.864,18.76 L74.408,18.76 C74.12,19.912 73.568,20.896 72.704,21.664 C71.624,22.6 70.256,23.08 68.6,23.08 C66.776,23.08 65.312,22.504 64.256,21.376 C63.104,20.176 62.528,18.568 62.528,16.528 C62.528,14.68 63.056,13.144 64.16,11.896 C65.216,10.624 66.68,10 68.504,10 Z M68.84,12 C67.88,12 67.136,12.264 66.56,12.84 C66.032,13.392 65.672,14.184 65.528,15.24 L72.224,15.24 C71.984,13.08 70.856,12 68.84,12 Z M78.28,5 C78.784,5 79.216,5.144 79.552,5.48 C79.888,5.792 80.056,6.2 80.056,6.704 C80.056,7.208 79.864,7.616 79.528,7.952 C79.192,8.264 78.76,8.432 78.28,8.432 C77.776,8.432 77.368,8.264 77.032,7.952 C76.696,7.616 76.528,7.184 76.528,6.704 C76.528,6.2 76.696,5.792 77.032,5.48 C77.368,5.144 77.776,5 78.28,5 Z M77.528,10 L80.072,10 L80.072,22.408 L77.528,22.408 L77.528,10 Z M89.816,10 C92.888,10 94.448,11.68 94.448,15.088 L94.448,22.744 L91.904,22.744 L91.904,15.304 C91.904,13.192 90.92,12.136 89,12.136 C88.28,12.136 87.632,12.376 87.104,12.904 C86.528,13.48 86.168,14.272 86.072,15.28 L86.072,22.744 L83.528,22.744 L83.528,10.336 L86.072,10.336 L86.072,11.872 C86.552,11.248 87.104,10.792 87.728,10.48 C88.352,10.144 89.048,10 89.816,10 Z" id="/-rein"></path>
            </g>
            <g id="分组-copy-3" transform="translate(0.000000, 38.000000)">
                <text id="SENSETOUCH" font-family="Futura-Bold, Futura" font-size="40" font-weight="bold" line-spacing="72" letter-spacing="0.0500000007" fill="#0071FF">
                    <tspan x="0.409999996" y="42">SENSETOUCH</tspan>
                </text>
                <text id="C2" opacity="0.856584821" font-family="Futura-Bold, Futura" font-size="40" font-weight="bold" line-spacing="72" letter-spacing="0.0500000007" fill="#000000">
                    <tspan x="428.01" y="45">C2</tspan>
                </text>
                <text id="驭" opacity="0.856584821" font-family="HYChengXingJ" font-size="120" font-weight="normal" line-spacing="72" fill="#000000">
                    <tspan x="292" y="111">驭</tspan>
                </text>
                <rect id="矩形" fill="#232323" fill-rule="nonzero" opacity="0.67687407" x="412" y="22" width="2" height="40"></rect>
            </g>
        </g>
    </g>
</svg>